<svg width="170" height="170" viewBox="0 0 170 170" fill="none" xmlns="http://www.w3.org/2000/svg">
	<g filter="url(#filter0_d_77_2)">
		<path d="M85 159C127.526 159 162 124.526 162 82C162 39.4741 127.526 5 85 5C42.4741 5 8 39.4741 8 82C8 124.526 42.4741 159 85 159Z" fill="white"/>
	</g>
	<path d="M122.97 130.278L37.5601 131.239L52.6959 47.5993L112.879 51.0376L122.97 130.278Z" fill="#8BC6FF"/>
	<path d="M130.898 134.6H51.1338L51.582 131.081L122.97 130.278L113.23 53.7899L122.97 52.7453L130.898 134.6Z" fill="#0051FF" fill-opacity="0.6"/>
	<path d="M51.582 131.082L60.7076 59.4201L113.23 53.7902L122.97 130.278L51.582 131.082Z" fill="#0051FF" fill-opacity="0.6"/>
	<path d="M103.325 45.3446H98.2214C98.2214 39.2034 93.2236 34.2079 87.0789 34.2079C80.9354 34.2079 75.9365 39.2034 75.9365 45.3446H70.833C70.833 36.3913 78.1211 29.1067 87.0789 29.1067C96.0368 29.1067 103.325 36.3913 103.325 45.3446Z" fill="#5982DA"/>
	<defs>
		<filter id="filter0_d_77_2" x="0" y="0" width="170" height="170" filterUnits="userSpaceOnUse" color-interpolation-filters="sRGB">
			<feFlood flood-opacity="0" result="BackgroundImageFix"/>
			<feColorMatrix in="SourceAlpha" type="matrix" values="0 0 0 0 0 0 0 0 0 0 0 0 0 0 0 0 0 0 127 0" result="hardAlpha"/>
			<feOffset dy="3"/>
			<feGaussianBlur stdDeviation="4"/>
			<feColorMatrix type="matrix" values="0 0 0 0 0 0 0 0 0 0 0 0 0 0 0 0 0 0 0.160784 0"/>
			<feBlend mode="normal" in2="BackgroundImageFix" result="effect1_dropShadow_77_2"/>
			<feBlend mode="normal" in="SourceGraphic" in2="effect1_dropShadow_77_2" result="shape"/>
		</filter>
	</defs>
</svg>
