<svg width="365" height="322" viewBox="0 0 365 322" fill="none" xmlns="http://www.w3.org/2000/svg">
<g clip-path="url(#clip0_376_2924)">
<path d="M124.458 322C168.027 322 203.346 316.976 203.346 310.778C203.346 304.58 168.027 299.555 124.458 299.555C80.8895 299.555 45.5701 304.58 45.5701 310.778C45.5701 316.976 80.8895 322 124.458 322Z" fill="#DBDEFF"/>
<path d="M59.9284 209.881C56.702 203.713 53.011 198.254 49.4307 193.642L45.5994 200.071L46.7989 190.377C40.485 182.798 34.9743 178.075 33.6152 176.951C33.4042 176.774 33.2935 176.688 33.2935 176.688C33.26 176.863 33.2266 177.034 33.1918 177.211C29.0092 198.651 28.4507 215.81 30.0323 229.511L39.987 238.245L31.0967 235.325L30.8431 235.243C33.4222 250.441 38.7335 260.862 44.2134 267.905C47.6199 272.296 51.0947 275.376 54.0161 277.482C54.2079 277.622 54.3971 277.757 54.5875 277.889C55.0599 278.22 55.5193 278.522 55.9582 278.8L62.0082 280.127C62.1394 279.857 62.2643 279.59 62.3865 279.317C62.4689 279.147 62.5461 278.977 62.6195 278.806C62.7263 278.583 62.8254 278.355 62.9232 278.131C74.7182 251.51 69.2859 227.828 60.0211 210.055C59.9979 209.997 59.9658 209.94 59.9297 209.878L59.9284 209.881Z" fill="#949AF8"/>
<path d="M62.9219 278.133L51.4538 238.534L51.2401 237.798L33.6152 176.952L33.5187 176.618L33.0605 176.754L33.1931 177.212L41.3949 205.539L41.5442 206.04L43.7796 213.764L43.8569 214.023L50.9879 238.646L50.9982 238.679L62.6182 278.808L62.7945 279.408L63.0712 280.363L63.5988 280.479L63.326 279.526L62.9219 278.133Z" fill="white"/>
<path d="M30.1669 200.677L29.8787 200.977L43.6503 214.24L43.9385 213.94L30.1669 200.677Z" fill="white"/>
<path d="M30.9228 195.467L30.6345 195.766L41.4295 206.163L41.7177 205.863L30.9228 195.467Z" fill="white"/>
<path d="M59.6529 209.796L50.99 238.676L51.3881 238.795L60.0511 209.915L59.6529 209.796Z" fill="white"/>
<path d="M17.8615 234.146L18.1987 239.934L14.7548 233.192C6.28147 230.766 0.150391 230.306 0.150391 230.306C1.30351 233.025 2.47207 235.611 3.65092 238.07L6.97386 238.485L4.22877 239.272C11.2543 253.679 18.6569 263.704 25.7609 270.653L36.7245 272.013L29.5304 274.08C48.0832 289.756 63.6735 285.305 63.6735 285.305C59.2708 253.252 35.0824 239.744 17.8615 234.146Z" fill="#DBDEFF"/>
<path d="M0.303283 230.12L0.00341797 230.481L64.8512 284.305L65.1511 283.943L0.303283 230.12Z" fill="white"/>
<path d="M6.56693 243.634L6.54053 244.068L16.9894 244.704L17.0158 244.27L6.56693 243.634Z" fill="white"/>
<path d="M21.446 247.868L9.11279 248.025L9.11835 248.462L21.4516 248.304L21.446 247.868Z" fill="white"/>
<path d="M31.7968 239.75L31.5369 240.235C39.4362 244.477 46.0242 249.818 51.1193 256.114L51.5465 255.767C46.4064 249.415 39.7618 244.026 31.7968 239.75Z" fill="white"/>
<path d="M239.108 0.359355C180.925 -3.57033 178.251 25.769 149.24 39.0535C137.852 44.2686 124.861 46.869 107.648 44.5584C101.694 43.7598 95.9829 43.4442 90.5404 43.5705C40.1443 44.7413 8.05906 110.662 24.1679 153.448C42.0194 200.858 122.723 174.336 133.045 209.656C140.473 235.078 145.443 257.715 163.073 271.684C167.923 275.528 173.731 278.714 180.812 281.123C183.751 282.124 186.912 282.989 190.312 283.713C190.312 283.713 263.909 299.973 338.285 199.756C365.708 162.807 369.824 125.977 360.491 94.8483C344.516 41.5483 285.74 3.50852 239.108 0.359355Z" fill="#DBDEFF"/>
<path d="M114.676 223.346L110.904 287.657H159.238L155.467 223.346H114.676Z" fill="#F97A8B"/>
<path d="M185.974 251.155H140.158V287.657H185.974V251.155Z" fill="#FEB96B"/>
<path d="M135.499 209.456C132.769 209.317 130.443 210.18 128.585 212.023C123.529 217.04 123.921 227.754 123.94 228.208C123.977 229.095 124.732 229.788 125.614 229.748C126.501 229.711 127.19 228.961 127.154 228.074C127.15 227.977 126.804 218.319 130.853 214.308C132.058 213.115 133.524 212.581 135.334 212.672C138.608 212.839 140.465 216.947 141.446 220.364C142.622 224.46 142.84 228.597 142.842 228.638C142.885 229.5 143.595 230.169 144.449 230.169C144.476 230.169 144.501 230.169 144.528 230.168C145.415 230.124 146.1 229.37 146.056 228.481C146.047 228.299 145.823 223.975 144.553 219.527C142.252 211.468 138.359 209.603 135.498 209.457L135.499 209.456Z" fill="#DC556C"/>
<path d="M173.733 252.922C172.856 252.792 172.037 253.401 171.907 254.281C171.903 254.307 171.52 256.839 170.125 259.371C168.369 262.556 165.885 264.171 162.74 264.171H162.739C159.241 264.171 156.597 262.662 154.885 259.688C153.532 257.34 153.254 254.913 153.248 254.849C153.157 253.965 152.37 253.321 151.487 253.41C150.603 253.499 149.958 254.287 150.046 255.172C150.058 255.296 150.367 258.235 152.035 261.188C154.327 265.246 158.029 267.39 162.738 267.391H162.74C167.084 267.391 170.611 265.155 172.942 260.926C174.615 257.888 175.072 254.875 175.091 254.748C175.22 253.869 174.612 253.051 173.733 252.921V252.922Z" fill="#ED7E48"/>
<path d="M129.964 46.0009L85.6021 19.9975C84.2263 19.1912 82.5777 19.1809 81.1929 19.9704C79.8082 20.76 78.9755 22.1845 78.9665 23.7804L78.5251 107.15C78.5019 111.541 80.8596 115.608 84.6793 117.767L130.983 143.933C131.469 144.208 132.002 144.345 132.535 144.345C133.068 144.345 133.625 144.201 134.12 143.912C135.1 143.343 135.685 142.325 135.689 141.192L135.952 56.4943C135.965 52.1949 133.671 48.1738 129.964 45.9996V46.0009ZM135.046 141.192C135.043 142.093 134.576 142.904 133.797 143.357C133.019 143.81 132.085 143.817 131.299 143.372L84.9959 117.207C81.3796 115.163 79.1454 111.31 79.1686 107.154L79.61 23.7842C79.6177 22.4215 80.3281 21.2056 81.5108 20.5307C82.0951 20.1971 82.7347 20.031 83.3743 20.031C84.014 20.031 84.6819 20.2049 85.2765 20.5539L129.638 46.5573C133.149 48.6156 135.321 52.4229 135.308 56.4943L135.046 141.192Z" fill="#2B3BFE"/>
<g opacity="0.45">
<path d="M127.148 48.935L126.471 48.5383L108.796 38.1776L88.575 26.3254L82.7849 22.9316C80.0694 21.3396 76.65 23.2883 76.6345 26.4375L76.4608 58.6105L76.1918 108.329C76.1687 112.594 78.4479 116.54 82.1517 118.647C82.162 118.652 82.1723 118.658 82.1826 118.665L98.1203 127.672L107.542 132.995L128.486 144.83C130.372 145.896 132.706 144.537 132.713 142.37L132.974 59.3717V59.1514C132.987 54.95 130.767 51.0589 127.145 48.9363L127.148 48.935Z" fill="#7C85FA"/>
</g>
<g opacity="0.15">
<path d="M76.462 58.6104L76.193 108.329C76.1699 112.594 78.4491 116.54 82.153 118.647L108.796 38.1776L88.5749 26.3254L76.4607 58.6104H76.462Z" fill="#2B3BFE"/>
</g>
<g opacity="0.15">
<path d="M127.148 48.935L126.471 48.5383L98.1204 127.67L107.542 132.994L132.974 59.3704V59.1501C132.987 54.9487 130.767 51.0576 127.145 48.935H127.148Z" fill="#2B3BFE"/>
</g>
<path d="M124.12 112.762L124.102 112.75C123.595 112.445 114.712 107.276 114.334 107.056L114.298 107.038C114.231 107.01 113.622 106.765 113.097 107.043C112.883 107.156 112.606 107.402 112.502 107.933C112.278 109.067 112.855 110.087 113.539 110.509L124.06 116.699L124.103 116.72C124.135 116.733 124.32 116.804 124.558 116.804C124.731 116.804 124.932 116.766 125.121 116.643C125.464 116.42 125.648 115.996 125.67 115.383C125.727 113.727 124.642 113.075 124.12 112.762ZM124.772 116.102C124.624 116.199 124.416 116.145 124.359 116.129L113.874 109.959C113.385 109.655 112.975 108.862 113.133 108.058C113.178 107.83 113.264 107.685 113.395 107.614C113.603 107.503 113.91 107.58 114.03 107.625C114.516 107.909 123.277 113.008 123.77 113.304L123.788 113.316C124.298 113.622 125.069 114.085 125.026 115.362C125.013 115.74 124.923 116.002 124.772 116.103V116.102Z" fill="#2B3BFE"/>
<path d="M123.832 117.892L123.823 117.885L100.833 104.613C100.762 104.575 100.123 104.255 99.5784 104.573C99.2013 104.793 98.9993 105.242 98.9774 105.91C98.9555 106.1 98.8821 107.258 100.182 108.267L100.199 108.28L124.025 122.047L124.068 122.071L124.116 122.082C124.144 122.088 124.275 122.115 124.453 122.115C124.665 122.115 124.943 122.075 125.189 121.913C125.441 121.746 125.607 121.479 125.669 121.14C125.938 119.645 124.82 118.546 123.834 117.889L123.832 117.892ZM125.033 121.029C125.004 121.194 124.938 121.308 124.834 121.377C124.668 121.488 124.419 121.48 124.297 121.464L100.558 107.746C99.4999 106.916 99.6093 106.022 99.6144 105.987L99.6183 105.946C99.6299 105.521 99.7303 105.232 99.9001 105.132C100.1 105.013 100.416 105.127 100.528 105.182L123.482 118.434C124.677 119.234 125.198 120.106 125.032 121.029H125.033Z" fill="#2B3BFE"/>
<path d="M124.952 128.51L123.612 127.627C123.257 125.562 123.009 125.487 122.844 125.438C122.745 125.409 122.638 125.42 122.543 125.473C122.464 125.516 122.244 125.637 121.919 126.639C121.573 126.424 121.075 126.124 120.835 126.027C120.564 125.917 120.394 126.022 120.318 126.093C120.098 126.297 120.179 126.652 120.224 126.795L120.241 126.846L121.382 128.385C121.308 128.586 121.175 128.957 121.022 129.448C120.912 129.8 120.947 130.07 121.126 130.25C121.389 130.514 121.794 130.407 121.865 130.387L122.486 130.217C122.87 130.781 123.535 131.739 123.742 131.904C123.856 131.993 123.961 132.02 124.046 132.02C124.108 132.02 124.158 132.007 124.194 131.993C124.45 131.895 124.5 131.6 124.52 131.487C124.546 131.385 124.552 131.358 124.086 129.763C124.367 129.676 124.751 129.542 124.952 129.408C125.188 129.251 125.22 129.059 125.219 128.957C125.215 128.691 124.99 128.536 124.951 128.512L124.952 128.51ZM123.603 129.231L123.287 129.318L123.38 129.633C123.491 130.016 123.633 130.504 123.739 130.88C123.49 130.538 123.172 130.08 122.892 129.664L122.763 129.472L121.687 129.767C121.67 129.772 121.636 129.778 121.606 129.78C121.609 129.749 121.618 129.704 121.638 129.639C121.862 128.92 122.045 128.456 122.046 128.452L122.112 128.286L121.063 126.872C121.382 127.059 121.755 127.293 121.93 127.406L122.295 127.641L122.414 127.224C122.498 126.93 122.601 126.63 122.692 126.4C122.797 126.787 122.916 127.363 123.001 127.871L123.024 128.01L124.446 128.949C124.213 129.052 123.836 129.17 123.605 129.233L123.603 129.231Z" fill="#2B3BFE"/>
<path d="M119.555 125.353L118.214 124.47C117.858 122.405 117.61 122.33 117.445 122.281C117.346 122.252 117.239 122.263 117.144 122.316C117.066 122.359 116.845 122.48 116.52 123.482C116.174 123.267 115.676 122.967 115.436 122.87C115.165 122.761 114.995 122.865 114.919 122.936C114.699 123.141 114.78 123.495 114.825 123.638L114.842 123.689L115.983 125.228C115.909 125.429 115.776 125.8 115.623 126.291C115.513 126.643 115.548 126.913 115.727 127.093C115.99 127.357 116.396 127.251 116.466 127.23L117.087 127.06C117.471 127.624 118.136 128.582 118.344 128.747C118.457 128.836 118.562 128.863 118.647 128.863C118.709 128.863 118.759 128.849 118.795 128.836C119.051 128.738 119.102 128.443 119.121 128.33C119.145 128.231 119.153 128.202 118.687 126.607C118.968 126.519 119.352 126.385 119.553 126.251C119.789 126.094 119.821 125.902 119.82 125.802C119.816 125.535 119.591 125.38 119.552 125.356L119.555 125.353ZM118.206 126.076L117.889 126.162L117.982 126.478C118.094 126.86 118.235 127.35 118.341 127.725C118.093 127.382 117.775 126.925 117.494 126.509L117.365 126.317L116.292 126.612C116.268 126.619 116.235 126.623 116.208 126.625C116.211 126.594 116.22 126.549 116.241 126.483C116.465 125.764 116.647 125.301 116.649 125.297L116.714 125.13L115.665 123.716C115.985 123.903 116.358 124.137 116.533 124.251L116.897 124.485L117.017 124.068C117.1 123.774 117.203 123.474 117.295 123.245C117.399 123.631 117.519 124.207 117.604 124.716L117.627 124.855L119.049 125.793C118.816 125.896 118.439 126.014 118.207 126.076H118.206Z" fill="#2B3BFE"/>
<path d="M114.058 122.24L112.717 121.357C112.362 119.292 112.113 119.217 111.949 119.168C111.85 119.139 111.743 119.15 111.647 119.203C111.569 119.246 111.349 119.367 111.023 120.369C110.677 120.154 110.179 119.854 109.94 119.757C109.667 119.647 109.498 119.752 109.422 119.823C109.202 120.027 109.283 120.382 109.328 120.523L109.345 120.575L110.487 122.115C110.412 122.316 110.279 122.687 110.126 123.178C110.017 123.53 110.052 123.8 110.231 123.98C110.493 124.244 110.898 124.137 110.969 124.117L111.591 123.947C111.974 124.511 112.64 125.469 112.847 125.634C112.96 125.723 113.066 125.75 113.151 125.75C113.212 125.75 113.263 125.737 113.299 125.723C113.555 125.625 113.605 125.33 113.624 125.217C113.65 125.115 113.656 125.088 113.191 123.493C113.471 123.406 113.856 123.272 114.057 123.138C114.292 122.981 114.324 122.789 114.323 122.687C114.319 122.421 114.094 122.266 114.055 122.242L114.058 122.24ZM112.709 122.963L112.393 123.049L112.485 123.365C112.597 123.747 112.739 124.235 112.844 124.611C112.596 124.269 112.278 123.812 111.998 123.396L111.869 123.204L110.796 123.499C110.771 123.506 110.739 123.51 110.711 123.511C110.713 123.481 110.722 123.435 110.743 123.37C110.967 122.651 111.149 122.187 111.151 122.184L111.216 122.017L110.167 120.603C110.487 120.79 110.86 121.024 111.035 121.138L111.399 121.372L111.519 120.955C111.602 120.661 111.705 120.361 111.797 120.132C111.901 120.518 112.021 121.094 112.106 121.603L112.129 121.742L113.551 122.681C113.318 122.784 112.941 122.902 112.709 122.965V122.963Z" fill="#2B3BFE"/>
<path d="M108.573 118.868L107.232 117.985C106.877 115.92 106.628 115.845 106.464 115.796C106.365 115.767 106.258 115.778 106.163 115.831C106.084 115.874 105.864 115.995 105.538 116.997C105.192 116.782 104.694 116.482 104.455 116.385C104.182 116.276 104.013 116.38 103.937 116.451C103.717 116.655 103.798 117.01 103.844 117.151L103.86 117.203L105.002 118.742C104.927 118.943 104.795 119.314 104.641 119.805C104.532 120.156 104.567 120.427 104.746 120.608C105.008 120.872 105.414 120.765 105.484 120.745L106.106 120.575C106.49 121.139 107.155 122.097 107.362 122.262C107.475 122.351 107.581 122.378 107.666 122.378C107.728 122.378 107.778 122.365 107.814 122.351C108.07 122.253 108.12 121.958 108.139 121.845C108.165 121.743 108.172 121.716 107.706 120.121C107.986 120.034 108.371 119.9 108.572 119.766C108.807 119.609 108.839 119.417 108.838 119.315C108.834 119.049 108.609 118.894 108.571 118.87L108.573 118.868ZM107.226 119.591L106.909 119.677L107.002 119.993C107.114 120.375 107.255 120.863 107.361 121.239C107.112 120.897 106.795 120.44 106.514 120.024L106.385 119.832L105.312 120.127C105.287 120.134 105.255 120.138 105.227 120.14C105.23 120.109 105.239 120.064 105.259 119.998C105.483 119.279 105.666 118.815 105.667 118.812L105.733 118.645L104.684 117.231C105.003 117.418 105.376 117.652 105.551 117.766L105.916 118L106.035 117.583C106.119 117.289 106.222 116.989 106.313 116.76C106.417 117.146 106.537 117.722 106.622 118.231L106.645 118.37L108.067 119.309C107.834 119.412 107.457 119.529 107.226 119.592V119.591Z" fill="#2B3BFE"/>
<path d="M103.069 115.893L101.728 115.009C101.372 112.945 101.124 112.87 100.959 112.821C100.86 112.791 100.753 112.803 100.658 112.856C100.58 112.898 100.36 113.019 100.034 114.021C99.6879 113.806 99.1898 113.506 98.9504 113.41C98.6789 113.302 98.509 113.405 98.4331 113.475C98.213 113.68 98.2941 114.034 98.3391 114.177L98.3559 114.229L99.4974 115.768C99.4227 115.969 99.2902 116.34 99.137 116.831C99.0277 117.182 99.0624 117.453 99.2413 117.633C99.5038 117.897 99.9092 117.79 99.98 117.77L100.602 117.6C100.985 118.164 101.65 119.122 101.858 119.287C101.971 119.376 102.076 119.403 102.161 119.403C102.223 119.403 102.273 119.389 102.309 119.376C102.565 119.278 102.616 118.983 102.635 118.87C102.661 118.768 102.667 118.742 102.201 117.146C102.482 117.059 102.867 116.925 103.067 116.791C103.303 116.634 103.335 116.442 103.334 116.34C103.33 116.073 103.105 115.919 103.066 115.894L103.069 115.893ZM101.72 116.614L101.403 116.701L101.496 117.016C101.608 117.399 101.75 117.887 101.855 118.263C101.607 117.92 101.289 117.463 101.008 117.047L100.88 116.855L99.8063 117.15C99.7818 117.158 99.7496 117.162 99.7213 117.163C99.7239 117.132 99.7329 117.087 99.7535 117.023C99.9787 116.304 100.16 115.84 100.161 115.835L100.227 115.669L99.1795 114.255C99.4987 114.441 99.8719 114.676 100.047 114.789L100.411 115.024L100.531 114.606C100.614 114.313 100.717 114.012 100.809 113.783C100.913 114.17 101.033 114.745 101.118 115.254L101.141 115.393L102.563 116.332C102.33 116.435 101.953 116.554 101.721 116.617L101.72 116.614Z" fill="#2B3BFE"/>
<path d="M144.276 69.0574C149.283 66.4185 149.472 56.9232 144.697 47.8489C139.923 38.7746 131.993 33.5577 126.986 36.1966C121.979 38.8354 121.79 48.3308 126.564 57.405C131.339 66.4793 139.268 71.6962 144.276 69.0574Z" fill="#433DB1"/>
<path d="M134.889 50.7549C133.767 49.8585 132.998 50.3917 132.977 51.6836C132.957 52.8492 133.575 54.2776 134.562 55.0672C135.11 55.5051 135.553 55.5837 135.864 55.3634L135.89 55.384C135.776 56.1117 135.504 56.5007 135.135 56.6205C134.817 56.739 134.408 56.6347 133.976 56.3655C133.723 56.1942 133.538 56.0679 133.377 55.9185L133.364 56.6746C133.541 56.8266 133.777 57.0056 134.049 57.1679C134.641 57.5556 135.227 57.7063 135.657 57.5285C136.208 57.3096 136.63 56.5831 136.655 55.0813C136.683 53.3387 136.01 51.6527 134.888 50.7549H134.889ZM135.834 54.6473C135.633 54.9023 135.24 54.8959 134.742 54.4979C134.101 53.9852 133.697 53.0566 133.711 52.2065C133.727 51.2405 134.185 50.9056 134.818 51.4105C135.594 52.0313 135.925 53.1996 135.906 54.3652C135.903 54.512 135.876 54.597 135.832 54.6473H135.834Z" fill="white"/>
<path d="M130.571 47.4667C129.449 46.5702 128.681 47.1035 128.659 48.3953C128.639 49.561 129.257 50.9894 130.244 51.7789C130.792 52.2168 131.235 52.2954 131.547 52.0751L131.572 52.0957C131.458 52.8235 131.186 53.2124 130.817 53.3322C130.499 53.4507 130.09 53.3464 129.659 53.0772C129.405 52.9059 129.218 52.7797 129.059 52.6303L129.046 53.3863C129.224 53.5383 129.459 53.716 129.729 53.8796C130.321 54.2673 130.908 54.418 131.338 54.2403C131.889 54.0213 132.311 53.2949 132.335 51.7931C132.364 50.0504 131.691 48.3644 130.568 47.4667H130.571ZM131.516 51.359C131.315 51.614 130.922 51.6076 130.424 51.2096C129.783 50.697 129.379 49.7683 129.393 48.9182C129.409 47.9522 129.867 47.6174 130.5 48.1223C131.276 48.7431 131.607 49.9113 131.588 51.0769C131.585 51.2238 131.558 51.3088 131.514 51.359H131.516Z" fill="white"/>
<path d="M139.312 55.1805C139.318 54.7606 139.572 54.4734 140.221 54.9924C140.76 55.4239 141.102 55.9314 141.277 56.1993L141.5 55.6751C141.258 55.3016 140.916 54.8572 140.41 54.4309L140.427 53.4121L139.904 52.9935L139.887 54.0535C139.109 53.5911 138.6 53.8539 138.586 54.7258C138.571 55.639 139.095 56.5471 139.948 57.6547C140.567 58.4688 140.89 59.0883 140.881 59.6653C140.871 60.2642 140.459 60.3698 139.86 59.892C139.388 59.5146 138.953 58.9646 138.653 58.47L138.439 59.011C138.73 59.5095 139.234 60.1032 139.723 60.5051L139.706 61.5651L140.237 61.9902L140.255 60.8979C141.127 61.4144 141.604 61.0074 141.617 60.1792C141.632 59.2454 141.203 58.349 140.342 57.213C139.614 56.2482 139.307 55.7266 139.316 55.1805H139.312Z" fill="white"/>
<path d="M301.612 50.4059L225.388 7.17803C223.003 5.82563 220.187 5.39286 217.527 6.0536C215.33 6.59972 213 8.2548 211.512 11.346C210.665 13.1067 210.253 15.0451 210.248 16.999L209.638 234.828C209.638 234.828 209.485 251.559 227.142 264.007L301.151 306.572C301.151 306.572 316.353 313.807 317.428 297.282L318.196 80.679C318.196 80.679 318.963 62.5466 301.613 50.4059H301.612Z" fill="url(#paint0_linear_376_2924)"/>
<path d="M311.88 47.4229C298.774 39.0148 235.094 2.87868 235.094 2.87868C235.094 2.87868 229.55 -0.869399 218.798 5.70455L218.861 5.80631C218.938 5.796 219.014 5.78827 219.088 5.78055C221.213 5.55128 223.353 6.02269 225.212 7.07627L301.614 50.4059C306.999 54.1746 310.639 58.5203 313.098 62.7205C318.562 72.0546 318.196 80.679 318.196 80.679L317.428 297.282C317.157 301.442 315.991 304.098 314.397 305.739C314.397 305.739 326.75 303.453 326.65 292.093L327.167 73.9905C327.167 73.9905 326.243 66.3011 321.985 58.613C319.702 54.4863 316.455 50.3595 311.878 47.4216L311.88 47.4229Z" fill="#433DB1"/>
<path d="M311.88 47.4229C298.774 39.0148 235.094 2.87868 235.094 2.87868C235.094 2.87868 229.55 -0.869399 218.798 5.70455L218.861 5.80631C218.938 5.796 219.014 5.78827 219.088 5.78055C221.213 5.55128 223.353 6.02269 225.212 7.07627L301.614 50.4059C306.999 54.1746 310.639 58.5203 313.098 62.7205L321.987 58.613C319.704 54.4863 316.457 50.3595 311.881 47.4216L311.88 47.4229Z" fill="#5A54BE"/>
<path d="M311.46 79.2932L294.436 69.5147L215.756 24.3213C215.036 23.9066 214.135 24.4269 214.135 25.259L213.904 123.233L213.835 152.922L213.762 183.962L213.713 205.235L213.655 229.878C213.651 231.943 214.744 233.856 216.526 234.896L311.065 290.166C312.277 290.874 313.8 290.002 313.802 288.597L314.011 213.395L314.139 167.324L314.264 122.218L314.37 84.3357C314.376 82.253 313.266 80.3287 311.461 79.2932H311.46Z" fill="#CCD4F5"/>
<path d="M311.46 79.2931L294.436 69.5146L213.904 123.233L213.835 152.922L314.264 122.22L314.37 84.3369C314.376 82.2543 313.266 80.33 311.461 79.2944L311.46 79.2931Z" fill="#E9EBF6"/>
<path d="M213.713 205.235V205.236L314.011 213.395L314.138 167.324L213.762 183.961L213.713 205.235Z" fill="#E9EBF6"/>
<path d="M337.298 307.1C337.275 307.089 337.251 307.079 337.228 307.068C336.137 306.576 327.175 301.243 324.397 299.585C323.295 301.128 321.909 302.307 320.524 303.199C317.461 305.171 314.397 305.738 314.397 305.738C309.752 310.527 301.478 306.724 301.159 306.575L319.585 317.735C319.585 317.735 322.362 319.634 325.502 317.672C327.212 316.605 334.338 312.265 337.478 310.354C338.741 309.586 338.638 307.72 337.297 307.098L337.298 307.1Z" fill="#DBDEFF"/>
<path d="M232.966 54.6254L171.275 18.4635C169.401 17.3648 167.156 17.3519 165.269 18.4274C163.382 19.5029 162.249 21.4426 162.237 23.6168L161.623 139.555C161.591 145.615 164.846 151.231 170.118 154.21L234.51 190.597C235.168 190.969 235.887 191.155 236.606 191.155C237.326 191.155 238.08 190.96 238.749 190.57C240.071 189.8 240.864 188.427 240.869 186.897L241.233 69.1115C241.251 63.1764 238.085 57.6264 232.967 54.6266L232.966 54.6254ZM240.223 186.893C240.219 188.192 239.546 189.358 238.424 190.012C237.301 190.665 235.955 190.674 234.825 190.035L170.434 153.648C165.364 150.784 162.234 145.384 162.265 139.557L162.879 23.6193C162.889 21.6783 163.902 19.9473 165.587 18.9864C167.272 18.0256 169.277 18.0384 170.95 19.0186L232.64 55.1805C237.56 58.0643 240.605 63.4018 240.587 69.1076L240.223 186.893Z" fill="#2B3BFE"/>
<g opacity="0.45">
<path d="M229.112 58.5963L228.344 58.1455L203.368 43.5061L175.225 27.0094L167.422 22.4357C163.646 20.2216 158.891 22.9315 158.868 27.312L158.631 71.2303L158.254 141.194C158.223 147.038 161.299 152.45 166.315 155.411C166.404 155.464 166.494 155.516 166.585 155.567L188.921 168.188L202.064 175.616L230.977 191.954C233.6 193.436 236.846 191.548 236.855 188.534L237.216 73.8552L237.22 72.8055C237.238 66.9631 234.151 61.5522 229.114 58.5988L229.112 58.5963Z" fill="#7C85FA"/>
</g>
<g opacity="0.15">
<path d="M158.629 89.2223L158.252 141.192C158.222 147.035 161.297 152.448 166.314 155.409L203.367 43.5048L180.809 30.2822L158.629 89.2223Z" fill="#2B3BFE"/>
</g>
<g opacity="0.15">
<path d="M229.113 58.5963L228.344 58.1455L188.919 168.187L202.063 175.615L237.215 73.8526L237.219 72.8029C237.237 66.9605 234.15 61.5497 229.113 58.5963Z" fill="#2B3BFE"/>
</g>
<path d="M212.294 81.3913C214.716 74.6705 216.698 70.1535 214.826 65.5257C212.955 60.8979 203.708 56.7119 203.708 56.7119C203.708 56.7119 201.892 66.077 197.735 64.6447C193.579 63.2124 190.935 53.139 191.265 49.5043L183.67 45.648C183.67 45.648 179.71 43.9324 180.039 49.7722C180.37 55.612 185.792 68.6504 184.581 76.2535C183.37 83.8552 178.828 105.191 178.828 105.191C178.828 105.191 178.608 106.512 178.828 108.055C178.828 108.055 187.195 122.963 201.837 127.739C201.837 127.739 215.927 133.54 216.918 127.739L211.305 97.2582C211.305 97.2582 209.874 88.1134 212.296 81.3926L212.294 81.3913Z" fill="url(#paint1_linear_376_2924)"/>
<path d="M206.804 77.6831C203.667 78.5821 199.51 80.7344 197.524 85.8748L197.512 85.9122C197.47 86.0809 196.487 90.1136 198.638 95.6816C200.722 101.076 203.317 107.789 198.787 110.16C194.202 112.56 191.308 114.837 190.183 116.926C189.212 118.732 188.237 119.39 188.228 119.396L188.58 119.936C188.625 119.906 189.692 119.197 190.749 117.231C191.811 115.257 194.615 113.07 199.084 110.731C204.122 108.093 201.414 101.082 199.234 95.4408C198.153 92.6432 197.911 90.245 197.9 88.7264C197.887 87.1963 198.099 86.2251 198.131 86.0873C199.649 82.1757 202.619 79.5584 206.96 78.3078C210.229 77.3663 213.091 77.5968 213.119 77.5994L213.175 76.958C213.055 76.9477 210.183 76.7133 206.803 77.6831H206.804Z" fill="white"/>
<path d="M201.66 127.037L201.808 127.325L201.66 127.037Z" fill="white"/>
<path d="M213.576 111.373C213.597 111.484 213.571 111.578 213.495 111.679C213.322 111.907 212.623 112.463 209.879 112.705C207.879 112.882 205.438 114.382 205.167 120.53C204.958 125.276 201.801 126.966 201.66 127.038L201.807 127.325L201.954 127.612C202.102 127.536 205.584 125.7 205.811 120.559C206.062 114.878 208.193 113.502 209.937 113.348C212.143 113.153 213.512 112.723 214.009 112.07C214.194 111.827 214.264 111.546 214.211 111.259L213.578 111.376L213.576 111.373Z" fill="white"/>
<path d="M193.941 68.2601C193.933 68.2356 193.209 65.8181 192.68 63.1287C191.811 58.7096 192.115 56.9824 192.522 56.3126L191.972 55.9778C191.294 57.0957 191.319 59.5442 192.049 63.2575C192.56 65.858 193.253 68.2047 193.319 68.4289C193.363 68.6697 193.883 71.569 193.9 74.5584C193.915 77.3354 193.496 80.7614 191.413 81.3179C187.109 82.4668 186.589 83.2112 185.73 84.9333L185.685 85.0234C185.376 85.643 185.403 86.7764 185.443 88.3452C185.514 91.2084 185.611 95.1304 183.58 97.8725C180.412 102.149 178.786 108.34 178.769 108.402L179.392 108.563C179.407 108.502 181.004 102.428 184.096 98.2551C186.259 95.3352 186.159 91.2844 186.085 88.3272C186.052 86.9632 186.022 85.7847 186.26 85.3094L186.305 85.2192C187.045 83.7354 187.383 83.0592 191.578 81.9387C196.232 80.6971 194.043 68.7985 193.947 68.2923L193.94 68.2588L193.941 68.2601Z" fill="white"/>
<path d="M224.646 147.725C223.934 147.297 211.067 139.809 211.067 139.809C211.067 139.809 209.497 139.14 209.184 140.728C208.924 142.043 209.578 143.321 210.422 143.843L225.044 152.446C225.044 152.446 226.539 153.052 226.609 150.987C226.68 148.922 225.356 148.153 224.644 147.726L224.646 147.725Z" fill="white"/>
<path d="M224.253 154.864L192.308 136.421C192.308 136.421 190.451 135.44 190.381 137.864C190.381 137.864 190.138 139.398 191.885 140.753L224.993 159.883C224.993 159.883 226.384 160.2 226.613 158.931C226.841 157.663 226.313 156.237 224.254 154.863L224.253 154.864Z" fill="white"/>
<path d="M225.814 169.631L223.787 168.295C223.787 168.295 223.321 165.511 222.999 165.414C222.678 165.317 222.098 167.346 222.098 167.346C222.098 167.346 220.651 166.412 220.168 166.219C219.685 166.026 219.911 166.734 219.911 166.734L221.599 169.013C221.599 169.013 221.342 169.664 221.02 170.695C220.698 171.725 221.647 171.435 221.647 171.435L222.82 171.113C222.82 171.113 224.348 173.383 224.654 173.625C224.961 173.867 225.008 173.352 225.024 173.288C225.039 173.223 224.3 170.696 224.3 170.696C224.3 170.696 225.427 170.391 225.813 170.133C226.199 169.876 225.813 169.635 225.813 169.635L225.814 169.631Z" fill="#433DB1"/>
<path d="M218.307 165.241L216.28 163.906C216.28 163.906 215.814 161.121 215.493 161.024C215.171 160.928 214.592 162.956 214.592 162.956C214.592 162.956 213.144 162.023 212.661 161.829C212.179 161.636 212.404 162.345 212.404 162.345L214.092 164.623C214.092 164.623 213.835 165.275 213.513 166.305C213.191 167.336 214.14 167.046 214.14 167.046L215.314 166.724C215.314 166.724 216.841 168.993 217.148 169.235C217.453 169.478 217.501 168.962 217.517 168.898C217.532 168.834 216.794 166.307 216.794 166.307C216.794 166.307 217.92 166.001 218.306 165.744C218.692 165.486 218.306 165.245 218.306 165.245L218.307 165.241Z" fill="#433DB1"/>
<path d="M210.664 160.912L208.637 159.577C208.637 159.577 208.171 156.792 207.849 156.695C207.527 156.599 206.948 158.627 206.948 158.627C206.948 158.627 205.5 157.694 205.018 157.5C204.535 157.307 204.76 158.016 204.76 158.016L206.449 160.294C206.449 160.294 206.192 160.946 205.87 161.976C205.548 163.007 206.497 162.717 206.497 162.717L207.67 162.395C207.67 162.395 209.198 164.664 209.504 164.906C209.809 165.147 209.858 164.633 209.874 164.569C209.889 164.505 209.15 161.978 209.15 161.978C209.15 161.978 210.276 161.672 210.662 161.415C211.049 161.157 210.662 160.916 210.662 160.916L210.664 160.912Z" fill="#433DB1"/>
<path d="M203.036 156.223L201.009 154.887C201.009 154.887 200.543 152.102 200.221 152.006C199.9 151.909 199.32 153.938 199.32 153.938C199.32 153.938 197.873 153.004 197.39 152.811C196.907 152.618 197.133 153.326 197.133 153.326L198.821 155.605C198.821 155.605 198.564 156.256 198.242 157.287C197.92 158.317 198.869 158.027 198.869 158.027L200.042 157.705C200.042 157.705 201.57 159.975 201.876 160.217C202.181 160.458 202.23 159.944 202.246 159.879C202.261 159.815 201.522 157.288 201.522 157.288C201.522 157.288 202.648 156.983 203.035 156.725C203.421 156.468 203.035 156.227 203.035 156.227L203.036 156.223Z" fill="#433DB1"/>
<path d="M195.38 152.084L193.353 150.749C193.353 150.749 192.887 147.964 192.565 147.868C192.244 147.771 191.664 149.8 191.664 149.8C191.664 149.8 190.217 148.866 189.734 148.673C189.251 148.479 189.477 149.188 189.477 149.188L191.165 151.466C191.165 151.466 190.908 152.118 190.586 153.148C190.264 154.179 191.213 153.889 191.213 153.889L192.386 153.567C192.386 153.567 193.914 155.836 194.22 156.079C194.525 156.319 194.574 155.805 194.59 155.741C194.605 155.677 193.866 153.15 193.866 153.15C193.866 153.15 194.992 152.844 195.379 152.587C195.765 152.329 195.379 152.088 195.379 152.088L195.38 152.084Z" fill="#433DB1"/>
<path d="M252.931 86.5795C259.895 82.9095 260.158 69.7046 253.518 57.0855C246.879 44.4664 235.851 37.2117 228.887 40.8816C221.923 44.5515 221.66 57.7564 228.3 70.3755C234.939 82.9947 245.967 90.2494 252.931 86.5795Z" fill="#433DB1"/>
<path d="M235.527 56.7789C234.043 55.5927 233.026 56.2985 232.998 58.0064C232.972 59.5468 233.789 61.4376 235.094 62.4809C235.819 63.0605 236.406 63.1635 236.816 62.8737L236.85 62.9008C236.698 63.8629 236.34 64.3768 235.851 64.5352C235.43 64.6911 234.89 64.5546 234.32 64.1978C233.984 63.9724 233.738 63.8037 233.527 63.6066L233.51 64.6061C233.744 64.807 234.057 65.0427 234.415 65.2591C235.197 65.7717 235.973 65.9714 236.542 65.737C237.271 65.4472 237.828 64.4863 237.86 62.5015C237.897 60.1973 237.008 57.9664 235.524 56.7815L235.527 56.7789ZM236.776 61.9258C236.511 62.2619 235.991 62.2542 235.334 61.7287C234.486 61.0512 233.953 59.8225 233.971 58.698C233.991 57.4203 234.598 56.9773 235.434 57.6457C236.46 58.4662 236.899 60.0118 236.873 61.5522C236.87 61.7467 236.834 61.8588 236.776 61.9245V61.9258Z" fill="white"/>
<path d="M240.635 64.3485C240.367 64.1347 240.21 64.0368 240.043 63.9312L240.359 61.8356L243.125 64.0471L243.142 63.0193L239.673 60.2462L239.134 64.203C239.403 64.3755 239.728 64.579 240.139 64.9088C241.59 66.068 242.2 67.3998 242.192 68.5744C242.173 69.7826 241.368 69.8985 240.443 69.1592C239.785 68.6337 239.199 67.8828 238.901 67.4204L238.641 68.1545C238.982 68.7084 239.648 69.5211 240.439 70.1535C242.012 71.4106 243.16 70.992 243.188 69.23C243.206 68.0914 242.751 66.94 242.188 66.0821C241.748 65.3931 241.192 64.7941 240.635 64.3485Z" fill="white"/>
<path d="M245.781 67.4513C245.79 66.8961 246.125 66.5162 246.983 67.2027C247.698 67.7733 248.149 68.4443 248.381 68.7985L248.674 68.1056C248.355 67.611 247.901 67.0237 247.233 66.4608L247.255 65.1148L246.564 64.5623L246.541 65.9649C245.511 65.3531 244.839 65.7009 244.82 66.8536C244.801 68.0618 245.493 69.2609 246.62 70.7267C247.439 71.8034 247.866 72.6226 247.853 73.3864C247.84 74.1772 247.296 74.3189 246.503 73.6852C245.879 73.1854 245.302 72.459 244.907 71.8047L244.624 72.5208C245.009 73.1803 245.674 73.9647 246.32 74.4953L246.297 75.898L247 76.4595L247.023 75.0157C248.176 75.6983 248.806 75.1612 248.824 74.0651C248.844 72.83 248.275 71.6437 247.136 70.1432C246.174 68.8681 245.767 68.1764 245.779 67.4551L245.781 67.4513Z" fill="white"/>
<path d="M329.713 151.451L268.022 115.289C266.149 114.19 263.903 114.177 262.016 115.253C260.129 116.328 258.996 118.268 258.984 120.442L258.37 236.38C258.338 242.44 261.593 248.055 266.865 251.035L331.257 287.422C331.915 287.795 332.634 287.98 333.354 287.98C334.073 287.98 334.827 287.786 335.496 287.395C336.818 286.625 337.611 285.252 337.616 283.722L337.98 165.937C337.998 160.002 334.832 154.452 329.714 151.452L329.713 151.451ZM336.97 283.719C336.966 285.019 336.293 286.185 335.171 286.839C334.049 287.492 332.702 287.501 331.572 286.862L267.181 250.475C262.111 247.61 258.981 242.211 259.014 236.384L259.627 120.446C259.638 118.505 260.651 116.774 262.335 115.813C264.02 114.852 266.025 114.865 267.698 115.845L329.388 152.007C334.308 154.891 337.353 160.227 337.335 165.934L336.971 283.719H336.97Z" fill="#2B3BFE"/>
<g opacity="0.45">
<path d="M325.86 155.422L324.673 154.727L312.761 147.744L297.844 138.998L273.412 124.678L264.169 119.26C260.393 117.046 255.638 119.756 255.615 124.136L255.298 182.869L255.001 238.019C254.975 242.953 257.164 247.578 260.864 250.681C261.625 251.318 262.45 251.892 263.333 252.39L273.26 258.001L284.349 264.267L327.725 288.779C330.347 290.26 333.593 288.37 333.602 285.358L333.968 169.63C333.986 163.787 330.898 158.376 325.861 155.423L325.86 155.422Z" fill="#7C85FA"/>
</g>
<g opacity="0.15">
<path d="M255.298 182.869L255.001 238.019C254.975 242.953 257.164 247.578 260.864 250.681L297.843 138.998L273.411 124.678L255.297 182.869H255.298Z" fill="#2B3BFE"/>
</g>
<g opacity="0.15">
<path d="M312.76 147.744L273.259 258.001L284.347 264.265L286.831 264.278L324.673 154.727L312.761 147.744H312.76Z" fill="#2B3BFE"/>
</g>
<path d="M321.393 244.551C320.681 244.124 307.815 236.635 307.815 236.635C307.815 236.635 306.245 235.967 305.932 237.555C305.672 238.87 306.326 240.148 307.17 240.669L321.793 249.273C321.793 249.273 323.287 249.878 323.358 247.814C323.429 245.749 322.104 244.98 321.393 244.553V244.551Z" fill="white"/>
<path d="M321.001 251.689L289.057 233.248C289.057 233.248 287.199 232.266 287.13 234.69C287.13 234.69 286.887 236.224 288.633 237.579L321.741 256.71C321.741 256.71 323.133 257.027 323.362 255.759C323.59 254.491 323.062 253.065 321.003 251.691L321.001 251.689Z" fill="white"/>
<path d="M322.561 266.456L320.534 265.121C320.534 265.121 320.068 262.336 319.747 262.239C319.425 262.143 318.846 264.171 318.846 264.171C318.846 264.171 317.398 263.238 316.915 263.044C316.433 262.851 316.658 263.56 316.658 263.56L318.346 265.838C318.346 265.838 318.089 266.49 317.767 267.52C317.446 268.551 318.394 268.261 318.394 268.261L319.568 267.939C319.568 267.939 321.095 270.208 321.402 270.45C321.707 270.691 321.756 270.177 321.771 270.113C321.786 270.048 321.048 267.521 321.048 267.521C321.048 267.521 322.174 267.216 322.56 266.959C322.946 266.701 322.56 266.46 322.56 266.46L322.561 266.456Z" fill="#433DB1"/>
<path d="M315.054 262.067L313.027 260.731C313.027 260.731 312.561 257.946 312.24 257.85C311.918 257.753 311.339 259.782 311.339 259.782C311.339 259.782 309.891 258.848 309.408 258.655C308.926 258.462 309.151 259.17 309.151 259.17L310.839 261.449C310.839 261.449 310.582 262.1 310.26 263.131C309.939 264.161 310.887 263.871 310.887 263.871L312.061 263.549C312.061 263.549 313.588 265.819 313.895 266.061C314.2 266.302 314.249 265.788 314.264 265.723C314.279 265.659 313.541 263.132 313.541 263.132C313.541 263.132 314.667 262.827 315.053 262.569C315.439 262.312 315.053 262.071 315.053 262.071L315.054 262.067Z" fill="#433DB1"/>
<path d="M307.411 257.738L305.384 256.402C305.384 256.402 304.918 253.617 304.597 253.521C304.275 253.424 303.696 255.453 303.696 255.453C303.696 255.453 302.248 254.519 301.765 254.326C301.283 254.133 301.508 254.841 301.508 254.841L303.196 257.12C303.196 257.12 302.939 257.771 302.617 258.802C302.295 259.832 303.244 259.542 303.244 259.542L304.418 259.22C304.418 259.22 305.945 261.49 306.252 261.732C306.557 261.973 306.605 261.459 306.621 261.394C306.636 261.33 305.898 258.803 305.898 258.803C305.898 258.803 307.024 258.498 307.41 258.24C307.796 257.983 307.41 257.742 307.41 257.742L307.411 257.738Z" fill="#433DB1"/>
<path d="M299.785 253.048L297.758 251.713C297.758 251.713 297.292 248.928 296.97 248.831C296.648 248.735 296.069 250.763 296.069 250.763C296.069 250.763 294.621 249.829 294.139 249.636C293.656 249.443 293.881 250.151 293.881 250.151L295.57 252.43C295.57 252.43 295.312 253.082 294.991 254.112C294.669 255.142 295.617 254.853 295.617 254.853L296.791 254.531C296.791 254.531 298.319 256.8 298.625 257.042C298.93 257.283 298.979 256.769 298.994 256.705C299.01 256.64 298.271 254.113 298.271 254.113C298.271 254.113 299.397 253.808 299.783 253.551C300.169 253.293 299.783 253.052 299.783 253.052L299.785 253.048Z" fill="#433DB1"/>
<path d="M292.128 248.91L290.101 247.574C290.101 247.574 289.636 244.79 289.314 244.693C288.992 244.596 288.413 246.625 288.413 246.625C288.413 246.625 286.965 245.691 286.482 245.498C286 245.305 286.225 246.013 286.225 246.013L287.914 248.292C287.914 248.292 287.656 248.943 287.334 249.974C287.013 251.004 287.961 250.714 287.961 250.714L289.135 250.392C289.135 250.392 290.663 252.662 290.969 252.904C291.275 253.146 291.323 252.631 291.338 252.566C291.354 252.502 290.615 249.975 290.615 249.975C290.615 249.975 291.741 249.67 292.127 249.412C292.513 249.155 292.127 248.914 292.127 248.914L292.128 248.91Z" fill="#433DB1"/>
<path d="M349.679 183.405C356.642 179.736 356.905 166.531 350.266 153.912C343.626 141.292 332.599 134.038 325.635 137.708C318.671 141.378 318.408 154.582 325.048 167.202C331.687 179.821 342.715 187.075 349.679 183.405Z" fill="#433DB1"/>
<path d="M308.188 187.763C308.075 186.074 307.043 184.582 305.503 183.881L301.921 182.255C302.489 177.61 301.226 172.228 298.576 168.505C296.33 165.351 293.283 163.545 289.762 163.284C287.171 163.09 285.035 163.818 283.408 165.444C281.47 167.381 280.696 170.236 280.4 172.519C277.868 171.735 275.129 173.281 274.559 175.958L270.517 194.91C270.102 196.854 270.981 198.843 272.695 199.845L302.989 217.537C306.173 219.397 310.138 216.937 309.892 213.257L308.188 187.765V187.763ZM299.065 180.956L283.245 173.768C283.393 171.849 283.898 169.136 285.505 167.535C286.508 166.535 287.829 166.111 289.542 166.238C292.844 166.483 294.965 168.541 296.163 170.223C298.202 173.087 299.279 177.261 299.065 180.955V180.956Z" fill="url(#paint2_linear_376_2924)"/>
<path d="M285.174 174.959C284.378 175.348 280.366 177.462 279.529 180.933C279.039 182.968 280.018 184.578 281.054 186.283C282.066 187.946 283.211 189.832 283.211 192.467C283.211 197.659 276.836 202.018 276.771 202.061L277.13 202.596C277.199 202.55 278.826 201.446 280.478 199.653C282.686 197.255 283.853 194.77 283.853 192.468C283.853 189.653 282.658 187.686 281.602 185.951C280.595 184.293 279.725 182.863 280.153 181.086C280.999 177.58 285.584 175.41 285.985 175.311C285.981 175.311 285.902 175.33 285.807 175.288L286.073 174.702C285.958 174.649 285.882 174.614 285.173 174.961L285.174 174.959Z" fill="white"/>
<path d="M299.328 185.464C297.763 188.066 297.814 190.557 299.474 192.667C300.739 194.274 301.104 195.785 300.559 197.157C299.742 199.216 296.87 200.846 293.064 201.41C287.069 202.298 287.616 208.715 287.623 208.78L288.264 208.718C288.262 208.702 288.13 207.21 288.678 205.645C289.398 203.592 290.905 202.381 293.159 202.046C297.191 201.448 300.256 199.666 301.158 197.394C301.785 195.816 301.378 194.042 299.98 192.267C298.481 190.363 298.445 188.19 299.871 185.808C300.965 183.983 302.544 182.717 302.561 182.704L302.162 182.199C302.093 182.253 300.483 183.541 299.329 185.462L299.328 185.464Z" fill="white"/>
<path d="M304.665 209.103C303.263 209.831 302.478 211.238 302.615 212.774C302.665 213.343 302.524 213.755 302.185 214.037C301.191 214.863 298.696 214.402 297.819 214.156L297.644 214.775C297.731 214.8 299.006 215.153 300.32 215.153C301.164 215.153 302.025 215.007 302.595 214.533C303.102 214.112 303.325 213.5 303.255 212.716C303.141 211.425 303.779 210.288 304.962 209.674C306.376 208.938 308.147 209.187 309.471 210.307L309.887 209.815C308.363 208.526 306.313 208.246 304.666 209.103H304.665Z" fill="#2B3BFE"/>
<path d="M337.379 160.687C337.112 160.473 336.955 160.375 336.787 160.27L337.104 158.174L339.87 160.386L339.886 159.358L336.418 156.585L335.879 160.541C336.148 160.714 336.472 160.916 336.884 161.247C338.334 162.407 338.944 163.738 338.937 164.913C338.917 166.121 338.113 166.237 337.188 165.498C336.53 164.972 335.943 164.221 335.646 163.759L335.385 164.493C335.726 165.047 336.391 165.86 337.182 166.492C338.755 167.749 339.903 167.331 339.931 165.569C339.949 164.43 339.494 163.278 338.931 162.421C338.491 161.732 337.935 161.133 337.378 160.687H337.379Z" fill="white"/>
<path d="M331.413 156.721C331.145 156.507 330.988 156.411 330.821 156.304L331.138 154.208L333.903 156.42L333.92 155.392L330.452 152.619L329.912 156.576C330.18 156.748 330.506 156.951 330.917 157.282C332.368 158.441 332.978 159.773 332.97 160.947C332.951 162.155 332.147 162.271 331.221 161.532C330.564 161.006 329.977 160.256 329.679 159.793L329.419 160.527C329.76 161.081 330.426 161.894 331.217 162.528C332.79 163.785 333.938 163.366 333.966 161.604C333.984 160.465 333.529 159.314 332.966 158.456C332.526 157.767 331.97 157.168 331.413 156.723V156.721Z" fill="white"/>
<path d="M342.526 163.79C342.535 163.235 342.87 162.855 343.728 163.541C344.442 164.112 344.894 164.783 345.126 165.137L345.419 164.444C345.1 163.95 344.646 163.362 343.978 162.799L343.999 161.453L343.308 160.901L343.285 162.303C342.256 161.692 341.584 162.039 341.565 163.192C341.545 164.4 342.236 165.599 343.365 167.065C344.183 168.142 344.611 168.961 344.598 169.725C344.585 170.516 344.041 170.657 343.248 170.024C342.624 169.524 342.047 168.798 341.652 168.143L341.369 168.859C341.754 169.519 342.419 170.303 343.065 170.834L343.042 172.237L343.745 172.798L343.768 171.354C344.921 172.037 345.55 171.5 345.568 170.404C345.589 169.168 345.02 167.982 343.881 166.482C342.918 165.207 342.512 164.515 342.525 163.794L342.526 163.79Z" fill="white"/>
<path d="M122.306 222.367C123.444 193.7 122.495 151.363 122.495 151.363L101.629 153.072C101.629 153.072 91.5749 159.147 80.193 157.819C80.193 157.819 76.5896 165.46 73.5536 181.193C70.519 196.926 67.9257 232.574 66.2012 239.385C64.7611 245.074 61.1975 268.119 55.1424 279.918C53.8889 282.361 54.7511 285.364 57.1178 286.753C58.4756 287.55 59.8501 288.583 60.8899 289.885C63.9259 293.682 76.0645 304.693 94.2762 294.821C94.338 294.848 96.1784 295.659 98.9415 296.523C104.563 298.28 114.004 300.264 120.072 296.34C129.177 290.454 128.798 286.468 128.798 286.468C128.798 286.468 121.165 251.034 122.302 222.368L122.306 222.367Z" fill="url(#paint3_linear_376_2924)"/>
<path d="M105.883 185.776C98.8502 183.706 96.45 232.286 96.6559 241.808C96.8631 251.331 94.2776 294.821 94.2776 294.821C94.3394 294.848 96.1797 295.659 98.9428 296.523C100.907 285.566 106.712 251.383 105.805 234.849C104.41 209.439 105.883 185.776 105.883 185.776Z" fill="url(#paint4_linear_376_2924)"/>
<path d="M105.39 185.63L106.377 185.922C107.533 181.997 112.041 153.536 112.233 152.327L111.216 152.166C111.17 152.461 106.528 181.769 105.39 185.63Z" fill="white"/>
<path d="M111.415 176.541L111.383 176.568C111.327 176.616 110.003 177.74 107.72 176.927L107.375 177.899C108.098 178.156 108.748 178.253 109.32 178.253C110.922 178.253 111.892 177.488 112.049 177.354C113.565 176.192 114.821 171.668 115.89 163.528C116.666 157.619 117.036 151.941 117.04 151.886L116.013 151.819C115.433 160.804 113.73 174.803 111.417 176.541H111.415Z" fill="white"/>
<path d="M71.9346 255.868L72.9435 256.074C73.0735 255.439 73.1945 254.795 73.3065 254.162L72.2923 253.985C72.1829 254.609 72.0633 255.243 71.9359 255.869L71.9346 255.868Z" fill="white"/>
<path d="M69.9951 263.287L70.9758 263.601C71.1727 262.988 71.3632 262.36 71.5446 261.74L70.5562 261.452C70.3786 262.065 70.1894 262.682 69.9964 263.287H69.9951Z" fill="white"/>
<path d="M71.0659 259.603L72.062 259.864C72.2255 259.24 72.3825 258.603 72.5279 257.975L71.5254 257.742C71.3812 258.361 71.2268 258.988 71.0659 259.604V259.603Z" fill="white"/>
<path d="M72.7854 250.708C72.7275 251.164 72.6644 251.629 72.5962 252.09L73.6142 252.239C73.6824 251.772 73.748 251.299 73.8059 250.837C73.8278 250.662 73.8497 250.486 73.8716 250.312L72.8497 250.186C72.8278 250.36 72.8072 250.534 72.7841 250.708H72.7854Z" fill="white"/>
<path d="M73.0762 248.274L74.0993 248.388C74.1701 247.76 74.2396 247.112 74.3052 246.461L73.2808 246.357C73.2152 247.004 73.147 247.649 73.0762 248.274Z" fill="white"/>
<path d="M73.7776 240.597L74.8046 240.672C74.8509 240.025 74.8947 239.381 74.9359 238.74L73.9089 238.674C73.8677 239.313 73.8252 239.953 73.7789 240.598L73.7776 240.597Z" fill="white"/>
<path d="M73.4648 244.439L74.4905 244.533C74.5485 243.9 74.6038 243.25 74.6566 242.603L73.6309 242.519C73.5781 243.163 73.5228 243.809 73.4648 244.439Z" fill="white"/>
<path d="M65.6258 273.924L66.5434 274.39C66.8343 273.816 67.1225 273.229 67.4005 272.643L66.47 272.201C66.1959 272.778 65.9115 273.357 65.6245 273.924H65.6258Z" fill="white"/>
<path d="M59.6055 283.718L60.4317 284.334C60.8114 283.824 61.1936 283.292 61.5694 282.751L60.7238 282.162C60.3545 282.694 59.9774 283.217 59.6055 283.718Z" fill="white"/>
<path d="M61.7947 280.571L62.6569 281.134C63.007 280.597 63.357 280.043 63.6981 279.488L62.8204 278.95C62.4845 279.497 62.1396 280.042 61.7947 280.571Z" fill="white"/>
<path d="M57.2053 286.683L57.9569 287.388C57.9762 287.366 58.4498 286.858 59.2361 285.881L58.4344 285.235C57.6763 286.179 57.2105 286.679 57.2053 286.684V286.683Z" fill="white"/>
<path d="M67.2708 270.457L68.2128 270.874C68.4741 270.283 68.7315 269.681 68.976 269.084L68.0236 268.692C67.7817 269.281 67.5281 269.875 67.2708 270.457Z" fill="white"/>
<path d="M68.7288 266.907L69.6914 267.274C69.9205 266.673 70.1444 266.057 70.3581 265.446L69.3864 265.106C69.1753 265.709 68.954 266.316 68.7288 266.908V266.907Z" fill="white"/>
<path d="M63.8011 277.3L64.693 277.815C65.0147 277.256 65.3339 276.684 65.6414 276.115L64.7354 275.624C64.4317 276.185 64.1177 276.749 63.7998 277.3H63.8011Z" fill="white"/>
<path d="M74.2073 232.895L75.2356 232.936C75.2614 232.287 75.2858 231.642 75.3077 231.002L74.2781 230.967C74.2562 231.604 74.2331 232.247 74.2061 232.895H74.2073Z" fill="white"/>
<path d="M74.0234 236.747L75.0517 236.804C75.0878 236.156 75.1212 235.511 75.1508 234.869L74.1225 234.82C74.0916 235.459 74.0595 236.101 74.0234 236.746V236.747Z" fill="white"/>
<path d="M76.7337 190.472L77.7491 190.642C77.8547 190.008 77.9602 189.369 78.0631 188.732L77.0464 188.567C76.9435 189.203 76.838 189.84 76.7324 190.472H76.7337Z" fill="white"/>
<path d="M76.0786 194.278L77.0927 194.458C77.2034 193.834 77.3141 193.196 77.4261 192.551L76.4119 192.376C76.3013 193.018 76.1906 193.655 76.0799 194.278H76.0786Z" fill="white"/>
<path d="M77.3501 186.66L78.3668 186.819C78.4672 186.177 78.565 185.538 78.6602 184.905L77.6422 184.752C77.5483 185.382 77.4505 186.019 77.3501 186.66Z" fill="white"/>
<path d="M78.4298 179.019L79.4516 179.143C79.534 178.464 79.6073 177.815 79.6704 177.213L78.646 177.106C78.5829 177.703 78.5108 178.347 78.4285 179.019H78.4298Z" fill="white"/>
<path d="M74.3386 229.039L75.3682 229.067C75.3862 228.416 75.4029 227.771 75.4171 227.132L74.3875 227.109C74.3734 227.747 74.3566 228.389 74.3386 229.039Z" fill="white"/>
<path d="M78.8237 175.194L79.8507 175.274C79.9086 174.52 79.9447 173.861 79.955 173.312L78.9254 173.291C78.9151 173.821 78.8804 174.46 78.8237 175.194Z" fill="white"/>
<path d="M75.385 198.076L76.3966 198.267C76.5124 197.655 76.6295 197.018 76.7492 196.363L75.7363 196.178C75.6179 196.831 75.4995 197.466 75.385 198.076Z" fill="white"/>
<path d="M77.9216 182.842L78.9409 182.987C79.0349 182.325 79.1249 181.679 79.206 181.067L78.1855 180.931C78.1044 181.538 78.0156 182.182 77.9216 182.842Z" fill="white"/>
<path d="M74.4775 221.318L75.5071 221.329C75.5135 220.676 75.5187 220.032 75.5238 219.395L74.4943 219.388C74.4891 220.023 74.484 220.667 74.4775 221.32V221.318Z" fill="white"/>
<path d="M74.4248 225.18L75.4544 225.198C75.466 224.546 75.4763 223.901 75.484 223.263L74.4544 223.249C74.4454 223.885 74.4364 224.529 74.4248 225.18Z" fill="white"/>
<path d="M74.8714 201.96L75.8971 202.043C75.9524 201.359 76.0181 200.719 76.0914 200.144L75.0696 200.014C74.9937 200.605 74.9267 201.259 74.8701 201.96H74.8714Z" fill="white"/>
<path d="M74.5232 215.538L74.5117 217.471L75.5413 217.477L75.5527 215.544L74.5232 215.538Z" fill="white"/>
<path d="M74.6565 205.844L75.6861 205.88C75.7105 205.187 75.7375 204.559 75.7697 203.959L74.7414 203.903C74.7093 204.51 74.6809 205.145 74.6565 205.844Z" fill="white"/>
<path d="M74.5664 209.719L75.596 209.734C75.605 209.075 75.6166 208.431 75.6307 207.806L74.6011 207.783C74.587 208.411 74.5754 209.057 74.5664 209.72V209.719Z" fill="white"/>
<path d="M74.5291 213.589L75.5586 213.595C75.5625 212.939 75.5676 212.295 75.5741 211.663L74.5445 211.654C74.5381 212.286 74.5342 212.931 74.5291 213.589Z" fill="white"/>
<path d="M89.88 164.485C88.5403 166.741 86.8183 168.513 84.7631 169.755C82.1917 171.308 79.0734 172.036 75.5008 171.917L75.4661 172.947C75.7286 172.956 75.9873 172.96 76.2421 172.96C84.3332 172.96 88.6085 168.657 90.7835 164.981C93.1965 160.903 93.5813 156.82 93.5968 156.649L92.5711 156.558C92.5672 156.598 92.185 160.608 89.88 164.487V164.485Z" fill="white"/>
<path d="M132.666 296.662C129.338 295.465 126.262 294.272 124.474 293.057C123.333 294.065 121.895 295.165 120.076 296.339C119.112 296.963 118.063 297.435 116.959 297.786C111.106 299.639 103.674 298.001 98.9454 296.522C97.6302 296.111 96.5259 295.713 95.7216 295.404C95.4732 297.622 95.2313 302.828 96.571 303.703C98.477 304.947 110.663 305.243 112.984 305.243C115.304 305.243 144.479 311.374 147.306 304.692C148.469 301.939 139.844 299.241 132.668 296.661L132.666 296.662Z" fill="#101214"/>
<path d="M120.076 296.339C119.112 296.963 118.063 297.435 116.959 297.786C121.402 298.473 128.463 299.036 132.668 296.661C129.34 295.463 126.264 294.271 124.475 293.056C123.335 294.063 121.896 295.163 120.077 296.338L120.076 296.339Z" fill="#FFCBCA"/>
<path d="M102.129 314.544C99.3327 310.943 93.6727 305.072 91.0988 296.364C83.22 299.74 76.6127 299.213 71.5524 297.355C66.0519 295.337 62.379 291.745 60.8912 289.885C60.4923 289.384 60.0418 288.924 59.5644 288.503C59.4125 290.483 59.3945 293.938 60.8861 295.488C63.0405 297.728 68.4264 298.225 70.0827 301.458C71.7403 304.692 86.2392 322.853 101.154 320.282C101.154 320.282 105.297 319.95 103.392 316.384C103.107 315.852 102.674 315.241 102.131 314.544H102.129Z" fill="#7B7B7A"/>
<path d="M91.0988 296.364C88.6009 297.434 86.2316 298.113 83.9987 298.48C79.1867 299.272 75.008 298.624 71.5525 297.355C72.6477 299.761 74.6541 303.659 77.2602 306.507C81.0413 310.641 90.7887 321.245 102.129 314.542C100.438 312.363 97.6984 309.356 95.2287 305.391C93.6149 302.802 92.1155 299.803 91.0988 296.362V296.364Z" fill="#101214"/>
<path d="M83.9985 298.48C85.7231 301.016 89.4063 305.145 95.2286 305.393C93.6147 302.804 92.1154 299.804 91.0987 296.364C88.6007 297.434 86.2314 298.113 83.9985 298.48Z" fill="#FFCBCA"/>
<path d="M149.698 87.1912L139.905 106.521C139.792 106.449 125.238 97.2543 115.214 95.1742C114.853 95.0982 114.501 95.0338 114.153 94.9771L112.155 94.726L108.805 94.3061L90.2777 95.9174C90.2777 95.9174 89.409 95.9508 88.0281 96.1221C87.7089 96.1621 87.364 96.2085 86.9959 96.2651C84.7785 96.6 81.7335 97.2504 78.8121 98.5037C77.4338 99.0936 76.179 99.8818 75.0748 100.822C71.8381 103.58 69.8896 107.668 69.8896 112.065V141.024C69.8896 141.024 70.1921 147.278 73.636 152.391V152.394C75.1417 154.628 77.2485 156.644 80.1931 157.822C91.5749 159.15 101.629 153.076 101.629 153.076L122.495 151.367C122.495 151.367 124.077 132.971 123.808 123.573C123.808 123.573 123.811 123.573 123.812 123.576C123.812 123.576 123.816 123.576 123.818 123.578C123.822 123.578 123.83 123.582 123.838 123.585C123.844 123.587 123.851 123.589 123.858 123.593C123.861 123.593 123.862 123.593 123.866 123.596C123.97 123.636 124.212 123.725 124.575 123.846C124.614 123.859 124.654 123.872 124.694 123.888C127.573 124.846 136.989 127.538 145.94 125.185C145.94 125.185 148.489 124.38 151.574 118.741C154.658 113.103 163.915 94.1747 163.915 94.1747L161.855 93.1623L149.698 87.1937V87.1912Z" fill="#F1404C"/>
<path d="M108.804 94.3061L90.2765 95.9174C90.2765 95.9174 89.4078 95.9508 88.0269 96.1221C87.9033 98.0966 88.4618 101.014 94.2068 102.382C101.163 104.039 113.657 101.708 112.152 94.726L108.802 94.3061H108.804Z" fill="#C92226"/>
<path d="M143.403 120.306C135.103 122.419 123.102 115.045 119.211 111.93C120.263 114.391 122.38 119.963 122.755 123.495C126.685 124.622 138.239 127.205 145.943 125.181C145.943 125.181 148.492 124.376 151.577 118.737C154.661 113.099 163.918 94.1708 163.918 94.1708L161.857 93.1585C159.484 98.2371 149.568 118.736 143.406 120.304L143.403 120.306Z" fill="#C92226"/>
<path d="M95.5838 137.016L90.1451 139.13C90.6741 130.674 87.1877 120.422 87.1877 120.422C87.1877 120.422 90.046 135.831 87.6317 141.872L94.3213 139.052C94.3213 139.052 97.0381 147.258 105.438 148.92C105.438 148.92 84.3564 162.665 73.636 152.39C75.1417 154.624 77.2485 156.64 80.1931 157.819C91.5749 159.147 101.629 153.072 101.629 153.072C104.716 152.271 108.802 147.267 108.802 147.267C96.6777 145.311 95.5825 137.015 95.5825 137.015L95.5838 137.016Z" fill="#C92226"/>
<path d="M165.512 81.8485C165.512 79.4528 163.017 78.7831 163.017 78.7831C163.017 78.7831 163.806 77.687 163.091 76.8884C162.377 76.0899 159.504 76.8884 159.504 76.8884C159.504 76.8884 163.872 70.9198 164.377 70.1625C164.88 69.4064 164.125 68.3542 163.369 68.3542C162.614 68.3542 155.22 75.3338 154.17 77.6883C153.431 79.3421 152.738 83.9634 152.39 86.5639C152.243 87.6626 152.157 88.4006 152.157 88.4006L162.378 93.4186C163.953 93.0593 164.709 91.7391 165.065 90.406C165.493 88.8076 165.343 87.1924 165.343 87.1924C165.531 88.1919 166.584 88.2847 166.584 88.2847C167.969 88.6633 167.906 85.4227 167.527 84.203C167.149 82.9833 165.512 81.8485 165.512 81.8485Z" fill="#FFCBCA"/>
<path d="M163.371 68.3529C164.421 70.4652 159.815 74.0664 157.157 77.4577C154.5 80.8503 154.615 83.3027 154.615 83.3027C154.615 83.3027 156.89 78.729 159.505 76.8872C159.505 76.8872 163.873 70.9186 164.377 70.1612C164.88 69.4052 164.125 68.3529 163.369 68.3529H163.371Z" fill="#FF9A93"/>
<path d="M164.44 85.5992C163.816 86.0899 162.569 84.5289 163.018 83.1468C163.467 81.7648 163.018 78.7818 163.018 78.7818C163.018 78.7818 161.449 80.1638 161.561 83.7522C161.673 87.3393 157.828 88.9093 157.828 88.9093C157.828 88.9093 160.633 88.4482 162.17 86.4866C162.876 85.5837 164.107 88.2602 164.979 87.043C166.497 84.9281 165.513 81.8498 165.513 81.8498C165.65 84.5649 165.066 85.1097 164.441 85.6005L164.44 85.5992Z" fill="#FF9A93"/>
<path d="M104.259 93.1211L104.053 88.2692C98.1114 88.2177 91.387 85.3468 91.387 85.3468C91.2197 85.3429 91.0563 85.3352 90.8967 85.3249L90.7654 87.5698L90.2776 95.9174C88.9135 102.252 109.003 102.053 109.003 95.4782C109.003 95.1085 108.94 94.717 108.805 94.3061L104.26 93.1211H104.259Z" fill="#FFCBCA"/>
<path d="M91.3871 85.3468C91.2198 85.3429 91.0563 85.3352 90.8967 85.3249C90.8967 85.3249 95.6726 91.8795 104.261 93.1211L104.055 88.2692C98.1127 88.2177 91.3883 85.3468 91.3883 85.3468H91.3871Z" fill="#FF9A93"/>
<path d="M111.805 67.3263L92.6907 75.5528L84.947 81.1054C84.947 81.1054 85.9933 85.2347 91.3857 85.3454C91.3857 85.3454 101.17 89.5237 107.564 87.8918C113.956 86.2599 114.283 78.5564 112.848 74.8341C111.413 71.113 111.805 67.3263 111.805 67.3263Z" fill="#FFCBCA"/>
<path d="M85.4426 77.0005C85.4426 77.0005 86.4117 83.295 91.4347 83.4045C91.4347 83.4045 87.902 81.3308 85.4426 77.0005Z" fill="#FF9A93"/>
<path d="M106.589 88.0928C105.775 88.2241 104.922 88.277 104.053 88.2692L104.259 93.1211L108.803 94.3061L109.975 94.4529C108.538 93.2319 106.942 91.2072 106.589 88.0928Z" fill="#561D1D"/>
<path d="M104.478 57.1447C104.478 57.1447 101.632 53.6259 95.5825 54.4528C89.5325 55.281 85.4477 62.0095 85.4477 62.0095C85.4477 62.0095 76.7594 57.4036 73.1379 65.84C69.519 74.2764 77.3282 82.0533 74.7414 84.9191C72.1547 87.7849 64.5011 93.5152 66.4148 97.6111C66.6194 98.0477 66.8601 98.4174 67.1317 98.7252C69.3993 101.301 73.7196 99.5753 75.1533 97.3097C75.1353 97.387 74.735 99.0858 75.0529 100.567C81.1724 96.2561 90.2776 95.9161 90.2776 95.9161L90.8979 85.3236C85.9316 84.981 84.9483 81.1041 84.9483 81.1041L92.692 75.5515L97.6506 73.4173L111.806 67.3251C111.806 67.3251 114.511 67.2362 114.771 64.6988C115.03 62.1627 110.685 57.7642 104.479 57.1421L104.478 57.1447Z" fill="#7B393B"/>
<path d="M104.478 57.1447C104.478 57.1447 95.3971 56.6127 93.2582 59.6447C93.2582 59.6447 98.0701 59.9422 98.1885 60.9533C98.3082 61.9631 94.2685 61.6669 92.9609 62.3199C91.6534 62.9742 90.5839 63.3902 89.9314 65.1148C89.9314 65.1148 97.9517 66.8395 97.5953 72.4281C97.5721 72.7926 97.5914 73.1223 97.6493 73.4199L111.805 67.3276C111.805 67.3276 114.51 67.2387 114.77 64.7014C115.028 62.1653 110.684 57.7668 104.478 57.1447Z" fill="#561D1D"/>
<path d="M84.9472 68.8397C82.0283 70.0221 84.9472 81.1054 84.9472 81.1054L92.6908 75.5528C88.5571 75.053 84.9472 68.8397 84.9472 68.8397Z" fill="#561D1D"/>
<path d="M84.9471 81.1041C81.1801 79.6203 80.5367 74.6332 81.5662 71.8292C82.5958 69.0252 84.7695 66.8498 83.9677 65.2643C83.1672 63.6774 80.7644 64.619 80.7644 64.619C72.5292 68.2254 74.874 74.9783 76.6475 77.4474C78.4209 79.9178 80.3192 83.8011 79.6911 86.7198C79.0618 89.6384 71.8445 91.8614 69.2719 93.7497C67.8897 94.7633 66.4136 97.6124 67.1304 98.7265C69.398 101.302 73.7183 99.5766 75.152 97.311C75.134 97.3883 74.7672 99.3151 75.0838 100.796C81.2033 96.4854 90.2751 95.9174 90.2751 95.9174L90.8954 85.3249C85.929 84.9822 84.9458 81.1054 84.9458 81.1054L84.9471 81.1041Z" fill="#561D1D"/>
<path d="M113.195 115.773L100.598 134.939L102.051 136.954L114.78 118.52L141.558 118.826L140.667 116.603L113.195 115.773Z" fill="#8CBDE1"/>
<path d="M100.598 134.939L102.051 136.954L114.78 118.52L113.195 115.773L100.598 134.939Z" fill="#A9C6E3"/>
<path d="M114.78 118.52L103.255 135.198L102.051 136.954L130.135 136.516L141.558 118.826L138.68 118.77L114.78 118.52Z" fill="#78A4CB"/>
<path d="M115.999 120.04C114.436 120.145 104.654 135.255 104.654 135.255C104.654 135.255 113.897 122.758 116.196 121.437C117.049 120.947 125.176 121.304 130.463 120.736C133.245 120.437 132.746 119.962 132.746 119.962C132.746 119.962 117.561 119.936 115.999 120.04Z" fill="#86B6DB"/>
<path d="M129.296 132.574C125.858 134.293 106.949 135.31 103.255 135.198L102.051 136.954L130.134 136.516L141.558 118.826L138.68 118.77C136.897 122.276 132.175 131.133 129.294 132.574H129.296Z" fill="#5697C0"/>
<path d="M112.606 64.4232C112.454 64.3459 112.29 64.2725 112.112 64.2029C109.483 63.1674 104.179 62.9626 101.119 64.3382C96.8925 66.238 93.1848 68.2949 93.1848 68.2949C93.1848 68.2949 91.356 69.2905 91.3714 70.5309C91.3882 71.7712 92.7665 77.8776 94.724 78.4508C96.6814 79.0239 103.851 78.0373 106.438 76.332C109.025 74.6267 110.339 73.9273 111.554 74.789C111.554 74.789 112.201 75.3506 113.173 75.0749C114.098 74.8122 115.311 74.6885 115.676 73.4276C115.694 73.3658 115.709 73.3001 115.723 73.2318C116.014 71.788 114.871 66.9322 114.871 66.9322C114.871 66.9322 114.617 65.4471 112.608 64.4245L112.606 64.4232Z" fill="#4759B0"/>
<path d="M112.606 64.4232C112.454 64.3459 112.29 64.2725 112.112 64.2029C112.053 64.19 108.25 63.3606 105.108 63.9234C101.943 64.4901 100.118 65.9507 97.98 66.9116C95.4241 68.0618 94.0368 69.0265 94.1951 70.4227C94.1951 70.4227 94.9904 74.9371 96.2774 76.484C97.5643 78.0322 103.354 77.0662 105.32 76.4235C107.285 75.7808 110.34 73.3233 111.335 73.5847C112.328 73.8462 112.241 74.2867 113.381 74.145C114.191 74.0445 115.131 73.8153 115.677 73.425C115.695 73.3632 115.71 73.2975 115.725 73.2292C116.015 71.7854 114.873 66.9296 114.873 66.9296C114.873 66.9296 114.618 65.4446 112.609 64.4219L112.606 64.4232Z" fill="#8593DA"/>
<path d="M113.068 65.8902C111.738 65.5631 109.279 65.1354 106.695 65.5759C105.652 65.7537 104.578 66.0242 103.567 66.323C102.469 66.6488 101.444 67.0095 100.611 67.325C100.132 67.5066 99.7161 67.6728 99.3866 67.808C98.8615 68.0244 98.5527 68.1635 98.5527 68.1635C98.5527 68.1635 98.4021 68.2369 98.191 68.3825C97.7934 68.6581 97.1821 69.1914 96.9555 69.9822C96.6274 71.1285 96.8989 73.8655 98.3969 75.1793C98.5514 75.3145 98.7521 75.3828 98.9568 75.366C99.7096 75.3055 101.815 75.111 104.209 74.6499C104.703 74.5546 105.21 74.4477 105.718 74.3292C106.165 74.2249 106.613 74.1115 107.057 73.9866C107.138 73.9647 107.218 73.9415 107.299 73.9183C107.299 73.9183 108.864 73.3838 109.886 72.8119C109.991 72.7527 110.092 72.6934 110.183 72.6342C111.161 72.0005 111.859 72.2697 112.144 72.4126C112.399 72.5402 113.56 72.9794 114.828 72.5891C115.1 72.5054 115.282 72.2478 115.272 71.9618C115.239 71.0371 115.091 68.8629 114.414 67.079C114.189 66.4853 113.685 66.0409 113.067 65.8889L113.068 65.8902Z" fill="#0E1951"/>
<path d="M79.2625 73.4005C78.3307 72.7346 77.9884 74.5906 78.1518 75.2604C78.2625 75.7151 79.1994 76.3475 79.7914 76.7081C80.0874 76.8884 80.3976 77.0469 80.718 77.1782C87.4398 79.9449 93.5503 77.4204 93.5503 77.4204C92.8759 76.426 92.3225 74.8946 91.9429 73.5074C83.9058 76.3951 79.2625 73.3992 79.2625 73.3992V73.4005Z" fill="#151E64"/>
<path d="M100.612 67.325L107.059 73.9891C107.141 73.9672 107.22 73.9441 107.301 73.9209C107.301 73.9209 108.866 73.3864 109.888 72.8145L103.569 66.3242C102.471 66.6501 101.447 67.0107 100.613 67.3263L100.612 67.325Z" fill="#B6BACB"/>
<path d="M98.554 68.1635C98.554 68.1635 98.4034 68.2369 98.1924 68.3825L104.21 74.6512C104.704 74.5559 105.211 74.449 105.72 74.3305L99.388 67.808C98.8629 68.0244 98.554 68.1635 98.554 68.1635Z" fill="#B6BACB"/>
<path d="M87.5504 73.4289C85.046 74.1386 83.5905 76.7468 84.2996 79.2532C85.0087 81.7597 87.6148 83.2164 90.1192 82.5067C92.6236 81.797 94.0792 79.1888 93.3701 76.6824C92.661 74.1759 90.0549 72.7192 87.5504 73.4289Z" fill="#333F98"/>
<path d="M87.9573 74.8637C86.2443 75.3493 85.2495 77.1319 85.7347 78.8462C86.2199 80.5605 88.001 81.5561 89.714 81.0706C91.4269 80.585 92.4217 78.8024 91.9366 77.0881C91.4514 75.3738 89.6702 74.3781 87.9573 74.8637Z" fill="#151E65"/>
<path d="M110.018 75.8696C109.55 76.484 108.533 76.5162 108.276 76.4505C108.017 76.3861 107.21 76.7957 107.993 77.4474C107.993 77.4474 109.823 78.17 110.585 77.3161C111.346 76.4634 110.89 75.5476 110.89 75.5476C110.89 75.5476 110.487 75.2553 110.018 75.8696Z" fill="#FF9A93"/>
<path d="M109.872 80.2385C109.765 80.2463 109.686 80.339 109.694 80.4459C109.718 80.7628 109.646 80.9997 109.469 81.1917C109.07 81.6218 108.112 81.8395 106.621 81.8395C104.082 81.8395 103.766 81.0783 103.756 81.0513C103.728 80.9508 103.626 80.8903 103.524 80.916C103.421 80.9418 103.358 81.0461 103.383 81.1504C103.41 81.2612 103.731 82.2272 106.621 82.2272C108.247 82.2272 109.271 81.9748 109.752 81.4544C110.004 81.1813 110.111 80.8426 110.079 80.4163C110.071 80.3094 109.976 80.2308 109.872 80.2385Z" fill="#E89C87"/>
<path d="M117.25 135.462C117.33 135.347 119.458 132.279 118.896 131.255C118.351 130.262 117.039 131.371 116.911 131.48C117.064 131.319 119.061 129.198 118.122 128.291C117.147 127.348 115.228 129.739 115.328 129.572C115.429 129.403 117.01 127.584 116.406 126.675C116.211 126.382 115.313 126.835 114.08 127.593C111.475 129.198 107.379 132.182 105.3 132.433C105.3 132.433 108.142 127.274 107.488 126.585C105.54 124.535 100.482 129.268 97.9956 133.376C96.9171 135.158 96.6288 137.338 96.6481 139.234C96.6507 139.47 96.6584 139.703 96.6687 139.928C97.8746 142.095 100.376 144.939 105.495 146.507C107.392 145.822 110.21 144.551 113.005 142.3C115.05 140.653 116.542 139.293 117.556 138.178C118.928 136.668 119.425 135.607 119.23 134.891C118.901 133.674 117.321 135.38 117.247 135.46L117.25 135.462Z" fill="#FFCBCA"/>
<path d="M123.583 124.588C122.477 124.808 121.498 125.335 120.826 126.072C120.134 126.829 119.847 127.719 120.018 128.575C120.309 130.033 121.878 130.997 123.741 130.997C124.098 130.997 124.466 130.961 124.838 130.888C125.943 130.668 126.923 130.141 127.594 129.404C128.287 128.647 128.574 127.757 128.403 126.901C128.056 125.165 125.894 124.127 123.583 124.588ZM127.215 129.056C126.616 129.712 125.736 130.183 124.737 130.382C122.703 130.787 120.813 129.931 120.523 128.473C120.385 127.781 120.628 127.052 121.206 126.418C121.804 125.763 122.685 125.291 123.683 125.093C124.026 125.025 124.363 124.993 124.69 124.993C126.307 124.993 127.656 125.789 127.898 127.002C128.036 127.694 127.793 128.423 127.215 129.056Z" fill="#C8DDEC"/>
<path d="M78.9626 152.2C78.9626 152.2 86.6136 156.882 100.155 149.28C100.155 149.28 85.624 153.357 78.9626 152.2Z" fill="#F59089"/>
<path d="M139.906 106.521L141.702 108.326C141.702 108.326 142.918 103.782 144.958 99.167C147.206 94.0807 150.276 88.8102 149.698 87.1912L139.906 106.521Z" fill="#F59089"/>
<path d="M105.154 143.645C102.013 143.362 98.2439 140.543 96.6506 139.237C96.6532 139.472 96.6609 139.705 96.6712 139.931C97.8771 142.097 100.379 144.941 105.497 146.51C107.394 145.825 110.213 144.554 113.008 142.302C115.053 140.656 116.544 139.296 117.559 138.18C117.229 138.41 109.171 144.009 105.154 143.645Z" fill="#FF9A93"/>
<path d="M107.49 126.586C107.553 128.384 102.437 131.961 104.71 134.001C106.208 135.346 114.081 127.594 114.081 127.594C111.477 129.198 107.38 132.182 105.302 132.435C105.302 132.435 108.143 127.275 107.49 126.586Z" fill="#FF9A93"/>
<path d="M117.233 135.124C117.203 135.151 114.209 137.874 112.265 138.394C112.162 138.421 112.101 138.528 112.129 138.631C112.152 138.718 112.231 138.774 112.316 138.774C112.332 138.774 112.349 138.772 112.366 138.768C114.4 138.222 117.369 135.523 117.494 135.409C117.573 135.337 117.578 135.214 117.507 135.136C117.435 135.057 117.313 135.052 117.234 135.123L117.233 135.124Z" fill="#E89C87"/>
<path d="M116.78 131.34C116.732 131.384 112.027 135.787 110.115 136.415C110.013 136.448 109.958 136.556 109.991 136.658C110.018 136.739 110.093 136.791 110.175 136.791C110.195 136.791 110.215 136.788 110.236 136.782C112.231 136.129 116.849 131.805 117.045 131.622C117.122 131.549 117.126 131.426 117.054 131.349C116.981 131.272 116.858 131.268 116.781 131.34H116.78Z" fill="#E89C87"/>
<path d="M115.362 129.192C114.27 130.214 111.272 132.923 110.509 133.178C110.407 133.211 110.353 133.321 110.386 133.423C110.413 133.504 110.488 133.555 110.569 133.555C110.59 133.555 110.61 133.553 110.63 133.545C111.628 133.211 115.462 129.627 115.624 129.474C115.702 129.4 115.707 129.278 115.633 129.201C115.56 129.122 115.438 129.118 115.36 129.192H115.362Z" fill="#E89C87"/>
<path d="M97.9661 137.363L103.455 128.97C99.4371 131.48 97.9661 137.363 97.9661 137.363Z" fill="#F7E1EE"/>
<path d="M92.3843 90.1536C92.3843 90.1536 90.9931 96.524 93.4384 98.0851C93.4384 98.0851 92.1321 92.9807 92.3843 90.1536Z" fill="#F7E1EE"/>
<path d="M159.632 91.3385C156.376 90.0312 153.281 87.3663 152.39 86.5626C152.243 87.6613 152.157 88.3993 152.157 88.3993L162.378 93.4174C163.953 93.058 164.709 91.7378 165.065 90.4047C164.965 90.5554 163.369 92.8378 159.632 91.3372V91.3385Z" fill="#FF9A93"/>
<path d="M123.096 306.374C117.17 305.644 113.842 303.704 111.075 304.063C104.765 304.884 98.5026 303.614 96.5966 302.37C95.9544 301.951 95.67 300.843 95.576 299.56C95.4859 299.557 95.4383 299.554 95.4383 299.554C95.4383 299.554 94.2556 306.759 99.7355 307.404C105.217 308.05 109.621 306.006 114.779 307.296C119.936 308.587 138.631 309.339 142.823 308.91C147.013 308.48 147.703 306.82 147.304 304.692C146.424 307.542 132.974 307.59 123.096 306.373V306.374Z" fill="#7B7B7A"/>
<path d="M124.458 302.818C124.458 302.818 136.248 307.67 144.392 302.675C144.392 302.675 136.891 305.045 124.458 302.818Z" fill="#7B7B7A"/>
<path d="M83.6318 309.327C83.6318 309.327 88.3498 316.624 98.2131 314.392C98.2131 314.392 92.4192 315.101 83.6318 309.327Z" fill="#7B7B7A"/>
<path d="M104.635 105.865C103.811 105.865 103.143 106.533 103.143 107.357C103.143 108.182 103.811 108.85 104.635 108.85C105.459 108.85 106.126 108.182 106.126 107.357C106.126 106.533 105.459 105.865 104.635 105.865Z" fill="white"/>
<path d="M105.949 111.752C105.125 111.752 104.457 112.421 104.457 113.245C104.457 114.069 105.125 114.738 105.949 114.738C106.773 114.738 107.44 114.069 107.44 113.245C107.44 112.421 106.773 111.752 105.949 111.752Z" fill="white"/>
<path d="M75.0736 100.821C71.8369 103.578 69.8884 107.666 69.8884 112.064V141.023C69.8884 141.023 70.1909 147.276 73.6348 152.39C73.6077 152.283 73.2281 148.924 72.1741 145.02C71.1033 141.055 71.2886 118.931 71.5023 113.359C71.7082 107.985 74.86 101.248 75.0723 100.822L75.0736 100.821Z" fill="#F59089"/>
</g>
<defs>
<linearGradient id="paint0_linear_376_2924" x1="209.638" y1="156.949" x2="318.201" y2="156.949" gradientUnits="userSpaceOnUse">
<stop stop-color="#623CF4"/>
<stop offset="0.24" stop-color="#613EF4"/>
<stop offset="0.39" stop-color="#5D47F4"/>
<stop offset="0.51" stop-color="#5855F5"/>
<stop offset="0.62" stop-color="#506AF6"/>
<stop offset="0.72" stop-color="#4684F8"/>
<stop offset="0.82" stop-color="#3AA5F9"/>
<stop offset="0.91" stop-color="#2BCCFC"/>
<stop offset="0.99" stop-color="#1AF8FE"/>
<stop offset="1" stop-color="#18FFFF"/>
</linearGradient>
<linearGradient id="paint1_linear_376_2924" x1="178.73" y1="87.8648" x2="216.917" y2="87.8648" gradientUnits="userSpaceOnUse">
<stop stop-color="#623CF4"/>
<stop offset="0.24" stop-color="#613EF4"/>
<stop offset="0.39" stop-color="#5D47F4"/>
<stop offset="0.51" stop-color="#5855F5"/>
<stop offset="0.62" stop-color="#506AF6"/>
<stop offset="0.72" stop-color="#4684F8"/>
<stop offset="0.82" stop-color="#3AA5F9"/>
<stop offset="0.91" stop-color="#2BCCFC"/>
<stop offset="0.99" stop-color="#1AF8FE"/>
<stop offset="1" stop-color="#18FFFF"/>
</linearGradient>
<linearGradient id="paint2_linear_376_2924" x1="270.415" y1="190.712" x2="309.903" y2="190.712" gradientUnits="userSpaceOnUse">
<stop stop-color="#623CF4"/>
<stop offset="0.24" stop-color="#613EF4"/>
<stop offset="0.39" stop-color="#5D47F4"/>
<stop offset="0.51" stop-color="#5855F5"/>
<stop offset="0.62" stop-color="#506AF6"/>
<stop offset="0.72" stop-color="#4684F8"/>
<stop offset="0.82" stop-color="#3AA5F9"/>
<stop offset="0.91" stop-color="#2BCCFC"/>
<stop offset="0.99" stop-color="#1AF8FE"/>
<stop offset="1" stop-color="#18FFFF"/>
</linearGradient>
<linearGradient id="paint3_linear_376_2924" x1="54.5709" y1="225.096" x2="128.803" y2="225.096" gradientUnits="userSpaceOnUse">
<stop stop-color="#623CF4"/>
<stop offset="0.24" stop-color="#613EF4"/>
<stop offset="0.39" stop-color="#5D47F4"/>
<stop offset="0.51" stop-color="#5855F5"/>
<stop offset="0.62" stop-color="#506AF6"/>
<stop offset="0.72" stop-color="#4684F8"/>
<stop offset="0.82" stop-color="#3AA5F9"/>
<stop offset="0.91" stop-color="#2BCCFC"/>
<stop offset="0.99" stop-color="#1AF8FE"/>
<stop offset="1" stop-color="#18FFFF"/>
</linearGradient>
<linearGradient id="paint4_linear_376_2924" x1="94.2776" y1="241.117" x2="105.901" y2="241.117" gradientUnits="userSpaceOnUse">
<stop stop-color="#623CF4"/>
<stop offset="0.39" stop-color="#613DF4"/>
<stop offset="0.53" stop-color="#5E44F4"/>
<stop offset="0.64" stop-color="#5A50F5"/>
<stop offset="0.72" stop-color="#5361F6"/>
<stop offset="0.79" stop-color="#4B77F7"/>
<stop offset="0.85" stop-color="#4192F8"/>
<stop offset="0.91" stop-color="#34B3FA"/>
<stop offset="0.96" stop-color="#27D7FC"/>
<stop offset="1" stop-color="#18FFFF"/>
</linearGradient>
<clipPath id="clip0_376_2924">
<rect width="365" height="322" fill="white"/>
</clipPath>
</defs>
</svg>
