<svg width="306" height="309" viewBox="0 0 306 309" fill="none" xmlns="http://www.w3.org/2000/svg">
<g clip-path="url(#clip0_372_1958)">
<g opacity="0.27">
<path d="M304.762 152.354C304.762 161.855 304.064 173.488 301.4 196.235C299.295 214.263 295.834 239.526 295.708 240.391L165.688 239.883C1.82328 240.426 12.8888 240.389 12.4102 240.391C2.32349 188.609 0 166.656 0 152.354C0 136.307 2.47873 120.847 7.08332 106.323C7.63886 104.561 8.23034 102.805 8.85128 101.073C19.6976 70.7368 39.8904 44.8426 65.9656 26.8617C67.6918 25.6674 69.4418 24.5147 71.2155 23.398C126.976 -11.7691 201.364 -7.62343 253.16 38.0705C254.946 39.6471 256.702 41.2654 258.41 42.9318C268.988 53.1734 278.084 64.9319 285.34 77.8611V77.8668C298.164 100.771 304.762 126.19 304.762 152.353V152.354Z" fill="url(#paint0_linear_372_1958)"/>
</g>
<g opacity="0.4">
<path d="M7.18042 212.336C8.63431 220.581 10.362 229.865 12.4124 240.388C12.8997 240.387 1.70911 240.424 165.69 239.881L295.71 240.388C295.872 239.27 297.951 223.947 299.428 212.336H7.18042Z" fill="url(#paint1_linear_372_1958)"/>
</g>
<g opacity="0.8">
<path d="M297.681 106.321H258.412V212.336H253.162V106.321H165.689V212.336H160.439V106.321H71.2169V206.709H65.967V106.321H7.08472C7.64026 104.56 8.23173 102.804 8.85267 101.072H65.967V26.86C67.6932 25.6657 69.4432 24.513 71.2169 23.3963V101.072H160.44V0.207672C162.195 0.297498 163.945 0.422535 165.69 0.572005V101.072H253.163V38.0688C254.948 39.6454 256.704 41.2637 258.413 42.9302V101.072H295.913C296.534 102.809 297.126 104.553 297.681 106.321H297.681Z" fill="url(#paint2_linear_372_1958)"/>
</g>
<g opacity="0.2">
<path d="M292.16 260.685C292.411 260.774 292.657 260.893 292.891 261.041C298.228 262.723 301.658 265.326 301.658 268.256C301.658 273.326 291.411 277.432 278.77 277.432C277.886 277.432 277.014 277.414 276.154 277.372C278.132 278.412 279.267 279.672 279.267 281.045C279.267 283.529 275.563 285.858 269.881 287.368C266.182 288.367 261.652 289.008 256.737 289.157C245.015 289.508 235.388 286.845 234.299 283.101C234.235 282.869 234.2 282.632 234.2 282.382C234.2 280.427 236.488 278.579 240.233 277.14C240.52 277.033 240.812 276.92 241.117 276.825C229.586 274.802 216.933 274.849 203.973 277.532C206.545 280.144 206.664 283.48 202.013 286.821C200.363 287.992 198.203 289.103 195.628 290.09C186.147 293.761 170.132 296.037 154.276 294.503C150.782 294.165 147.344 295.312 144.586 297.484C143.347 298.46 141.766 299.387 139.898 300.246C132.975 303.437 122.072 306.049 109.8 306.058C46.3564 306.108 34.9811 291.83 28.5497 288.14C25.9869 286.672 22.0478 283.207 24.9275 279.32C26.9233 276.634 30.7855 276.806 32.0202 273.08C32.8747 270.489 31.9677 266.489 30.475 264.011C27.7656 264.766 24.7572 265.182 21.5856 265.182C9.77628 265.182 0.207764 259.429 0.207764 252.345C0.207764 246.319 1.29369 241.261 10.6272 239.882L10.7422 240.387C97.7709 239.915 193.115 239.788 293.784 239.882H293.795C294.451 240.055 295.095 240.245 295.709 240.441C301.906 242.449 305.997 246.443 305.997 250.365C305.997 254.65 301.111 258.371 293.918 260.254C293.121 260.55 292.715 260.562 292.157 260.682L292.16 260.685Z" fill="url(#paint3_linear_372_1958)"/>
</g>
<path d="M261.344 252.358H270.207C277.869 252.358 284.287 246.141 284.529 238.48L290.647 43.7774C290.888 36.1164 284.863 29.899 277.201 29.899H268.337C275.999 29.899 282.025 36.1164 281.783 43.7774L275.666 238.48C275.424 246.141 269.006 252.358 261.344 252.358Z" fill="url(#paint4_linear_372_1958)"/>
<path d="M161.517 238.474C161.305 246.149 167.31 252.37 174.987 252.37H261.343C269.019 252.37 275.416 246.15 275.668 238.474L281.775 43.7946C282.027 36.1192 276.022 29.899 268.346 29.899H181.949C174.314 29.899 167.877 36.1185 167.665 43.7946L161.518 238.474H161.517Z" fill="url(#paint5_linear_372_1958)"/>
<path d="M171.812 52.3159L166.116 233.531C165.952 238.752 170.052 242.995 175.263 242.995H261.635C266.856 242.995 271.223 238.752 271.387 233.531L277.083 52.3159C277.247 47.1053 273.147 42.8626 267.926 42.8626H181.553C176.342 42.8626 171.975 47.1053 171.812 52.3159Z" fill="white"/>
<path d="M208.39 36.5662C208.356 37.6564 209.203 38.569 210.331 38.569H239.426C240.534 38.569 241.458 37.6729 241.493 36.5662C241.527 35.4761 240.68 34.5635 239.552 34.5635H210.456C209.349 34.5635 208.425 35.4589 208.39 36.5662Z" fill="url(#paint6_linear_372_1958)"/>
<path d="M251.944 36.5382C251.908 37.6578 252.79 38.574 253.909 38.574C255.028 38.574 255.974 37.6571 256.009 36.5382C256.044 35.4193 255.163 34.5089 254.036 34.5089C252.91 34.5089 251.978 35.4193 251.943 36.5382H251.944Z" fill="url(#paint7_linear_372_1958)"/>
<path d="M283.376 58.6949L283.15 75.6066C283.139 76.4495 283.814 77.1631 284.659 77.1997C285.503 77.2364 286.197 76.5824 286.208 75.7395L286.434 58.8279C286.445 57.9849 285.77 57.2735 284.925 57.2369C284.504 57.2182 284.118 57.372 283.839 57.6357C283.557 57.8987 283.382 58.2738 283.376 58.6949Z" fill="url(#paint8_linear_372_1958)"/>
<path d="M283.07 81.5961L283.032 84.3944C283.021 85.2373 283.696 85.9509 284.541 85.9875C285.385 86.0242 286.079 85.3703 286.09 84.5273L286.128 81.7291C286.139 80.8862 285.464 80.1747 284.619 80.1381C284.197 80.1194 283.812 80.2732 283.533 80.5369C283.251 80.7999 283.075 81.175 283.07 81.5961Z" fill="url(#paint9_linear_372_1958)"/>
<path d="M256.319 82.3183L253.312 179.622C253.213 182.836 250.526 185.437 247.317 185.437H192.515C189.306 185.437 186.78 182.836 186.879 179.622L189.886 82.3183C189.985 79.109 192.672 76.5041 195.881 76.5041H250.684C253.893 76.5041 256.418 79.1098 256.319 82.3183Z" fill="#EDF1F5"/>
<path d="M247.286 171.678C246.448 172.459 244.384 172.496 243.259 172.397C241.825 172.269 240.366 172.124 238.989 171.757C236.417 171.105 235.785 170.106 234.086 169.533C231.792 168.769 229.266 169.719 226.985 170.661C221.377 172.966 220.152 173.603 218.571 173.603C216.36 173.603 215.034 171.896 213.288 170.848C211.097 169.533 208.208 169.405 205.834 170.517C205.063 170.876 204.6 171.208 203.813 171.468C202.921 171.76 201.882 171.748 201.507 171.777C199.673 171.856 197.788 171.877 196.106 171.211C194.387 170.529 192.792 168.951 192.804 167.091C192.821 167.031 196.078 140.04 207.859 126.171L208.374 109.527C208.374 109.527 215.279 104.668 207.382 91.1485C207.08 90.6319 207.286 89.9521 207.832 89.6718L210.2 88.4574C210.685 88.2087 211.267 88.3647 211.548 88.8152C214.771 93.9798 218.258 98.7018 222.386 102.349C226.645 98.6996 230.487 94.0761 234.057 88.8224C234.365 88.369 234.958 88.2095 235.43 88.4595L237.719 89.6718C238.248 89.9521 238.412 90.6319 238.078 91.1485C229.346 104.668 235.954 109.527 235.954 109.527L235.44 126.171C245.866 139.423 247.802 164.65 247.954 166.926H247.983C247.928 168.682 248.55 170.496 247.287 171.678L247.286 171.678Z" fill="url(#paint10_linear_372_1958)"/>
<path d="M214.296 138.228C213.299 139.463 212.415 140.778 211.621 142.137C206.987 150.091 204.761 162.154 204.327 171.273C203.151 171.766 202.46 171.702 201.506 171.777C202.672 162.229 205.855 149.846 211.312 141.952C212.216 140.637 213.206 139.386 214.296 138.229V138.228Z" fill="url(#paint11_linear_372_1958)"/>
<path d="M238.989 171.756C237.858 171.469 237.114 171.129 236.222 170.62C236.307 160.016 234.745 146.559 228.251 138.228C235.673 146.31 238.457 160.8 238.989 171.756Z" fill="url(#paint12_linear_372_1958)"/>
<path d="M220.741 173.19C219.769 173.514 218.815 173.714 217.816 173.533L220.369 138.265L220.741 173.19Z" fill="url(#paint13_linear_372_1958)"/>
<path d="M235.488 124.496L235.436 126.17H207.855L207.907 124.496H235.488Z" fill="url(#paint14_linear_372_1958)"/>
<path d="M269.921 131.776L263.665 136.873C262.964 137.443 261.941 136.958 261.968 136.068L262.283 125.874C262.31 124.984 263.363 124.498 264.029 125.069L269.971 130.166C270.46 130.585 270.436 131.356 269.921 131.776Z" fill="#BFC9D1"/>
<path d="M173.228 131.776L179.17 136.873C179.835 137.443 180.889 136.958 180.916 136.068L181.231 125.874C181.258 124.984 180.235 124.498 179.534 125.069L173.278 130.166C172.763 130.585 172.739 131.356 173.228 131.776Z" fill="#BFC9D1"/>
<path d="M205.459 185.563H179.954V192.005H205.459V185.563Z" fill="#F8E77F"/>
<path d="M204.56 192.005H179.954V246.788H204.56V192.005Z" fill="#FCCF36"/>
<path d="M179.954 185.563H154.449V192.005H179.954V185.563Z" fill="#FCCF36"/>
<path d="M179.954 192.005H155.349V246.788H179.954V192.005Z" fill="#FBC52D"/>
<path d="M204.56 192.005H179.954V193.996H204.56V192.005Z" fill="#FBBA24"/>
<path d="M179.954 192.005H155.349V193.996H179.954V192.005Z" fill="#FAB01B"/>
<path d="M194.995 185.563H190.417V192.005H194.995V185.563Z" fill="#EF4441"/>
<path d="M194.995 192.005H190.417V246.788H194.995V192.005Z" fill="#DF2715"/>
<path d="M167.652 185.563H163.074V192.005H167.652V185.563Z" fill="#EF4441"/>
<path d="M167.652 192.005H163.074V246.788H167.652V192.005Z" fill="#DF2715"/>
<path d="M194.995 192.005H190.417V193.996H194.995V192.005Z" fill="#B72214"/>
<path d="M167.652 192.005H163.074V193.996H167.652V192.005Z" fill="#B72214"/>
<path d="M191.82 181.001C191.82 181.001 188.657 174.502 183.166 185.562H180.583C180.583 185.562 183.33 175.589 187.393 174.768C191.82 173.872 191.82 181.001 191.82 181.001Z" fill="#EF4441"/>
<path d="M191.82 181.001C191.82 181.001 191.397 184.02 189.844 185.562H183.166C183.166 185.562 188.421 184.096 189.735 179.173C190.544 179.409 191.254 179.967 191.819 181.001L191.82 181.001Z" fill="#DF2715"/>
<path d="M165.969 181.001C165.969 181.001 169.132 174.502 174.623 185.562H177.206C177.206 185.562 174.459 175.589 170.396 174.768C165.969 173.872 165.969 181.001 165.969 181.001Z" fill="#EF4441"/>
<path d="M165.969 181.001C165.969 181.001 166.393 184.02 167.945 185.562H174.624C174.624 185.562 169.368 184.096 168.055 179.173C167.246 179.409 166.536 179.967 165.97 181.001L165.969 181.001Z" fill="#DF2715"/>
<path d="M180.593 185.535C180.591 185.543 180.586 185.555 180.584 185.563H177.207C177.207 185.563 175.769 184.33 176.108 180.554C176.152 180.036 176.289 179.539 176.502 179.165H176.504C176.514 179.145 176.525 179.126 176.538 179.106C176.916 178.489 177.639 177.781 178.942 177.94C180.053 178.075 180.635 178.652 180.938 179.193C181.243 179.739 181.266 180.248 181.266 180.248C181.266 180.248 181.55 182.95 180.592 185.536L180.593 185.535Z" fill="#EF4441"/>
<path d="M177.345 180.935C177.312 183.04 177.207 185.563 177.207 185.563C177.207 185.563 175.769 184.33 176.108 180.554C176.152 180.036 176.289 179.539 176.502 179.165H176.504C176.556 179.145 177.381 178.895 177.345 180.936V180.935Z" fill="#DF2715"/>
<path d="M180.593 185.535C180.574 185.555 180.565 185.563 180.565 185.563C180.565 185.563 180.258 183.05 180.226 180.945C180.205 179.723 180.692 179.312 180.939 179.193C181.244 179.738 181.267 180.247 181.267 180.247C181.267 180.247 181.551 182.949 180.593 185.535Z" fill="#DF2715"/>
<path d="M232.247 212.003H213.118V216.835H232.247V212.003Z" fill="#9DD3F5"/>
<path d="M231.572 216.834H213.118V246.787H231.572V216.834Z" fill="#9DD3F5"/>
<path d="M213.118 212.003H193.99V216.835H213.118V212.003Z" fill="#6DB0F4"/>
<path d="M213.119 216.834H194.665V246.787H213.119V216.834Z" fill="#6DB0F4"/>
<path d="M231.572 216.834H213.118V218.327H231.572V216.834Z" fill="#6DB0F4"/>
<path d="M213.119 216.834H194.665V218.327H213.119V216.834Z" fill="#387AE3"/>
<path d="M224.399 212.003H220.966V216.835H224.399V212.003Z" fill="#EF4441"/>
<path d="M224.399 216.834H220.966V246.787H224.399V216.834Z" fill="#EF4441"/>
<path d="M203.891 212.003H200.458V216.835H203.891V212.003Z" fill="#EF4441"/>
<path d="M203.891 216.834H200.458V246.787H203.891V216.834Z" fill="#EF4441"/>
<path d="M224.399 216.834H220.966V218.327H224.399V216.834Z" fill="#B72214"/>
<path d="M203.891 216.834H200.458V218.327H203.891V216.834Z" fill="#B72214"/>
<path d="M222.018 208.581C222.018 208.581 219.645 203.707 215.527 212.002H213.59C213.59 212.002 215.65 204.522 218.697 203.905C222.018 203.234 222.018 208.581 222.018 208.581V208.581Z" fill="#DF2715"/>
<path d="M222.018 208.581C222.018 208.581 221.7 210.845 220.536 212.002H215.527C215.527 212.002 219.468 210.903 220.454 207.21C221.06 207.386 221.593 207.805 222.018 208.581V208.581Z" fill="#B72214"/>
<path d="M202.63 208.581C202.63 208.581 205.002 203.707 209.12 212.002H211.058C211.058 212.002 208.997 204.522 205.95 203.905C202.63 203.234 202.63 208.581 202.63 208.581V208.581Z" fill="#DF2715"/>
<path d="M202.63 208.581C202.63 208.581 202.947 210.845 204.112 212.002H209.12C209.12 212.002 205.179 210.903 204.193 207.21C203.587 207.386 203.054 207.805 202.63 208.581V208.581Z" fill="#B72214"/>
<path d="M213.597 211.982C213.595 211.988 213.592 211.997 213.59 212.003H211.058C211.058 212.003 209.98 211.078 210.233 208.246C210.267 207.858 210.369 207.485 210.529 207.205H210.531C210.538 207.19 210.547 207.174 210.555 207.16C210.838 206.697 211.381 206.166 212.358 206.286C213.191 206.387 213.628 206.819 213.855 207.225C214.085 207.634 214.102 208.016 214.102 208.016C214.102 208.016 214.315 210.042 213.597 211.982H213.597Z" fill="#DF2715"/>
<path d="M211.162 208.532C211.137 210.111 211.058 212.003 211.058 212.003C211.058 212.003 209.98 211.078 210.233 208.246C210.267 207.858 210.369 207.485 210.529 207.205H210.531C210.57 207.19 211.188 207.002 211.161 208.533L211.162 208.532Z" fill="#B72214"/>
<path d="M213.598 211.982C213.583 211.997 213.577 212.003 213.577 212.003C213.577 212.003 213.347 210.118 213.322 208.539C213.306 207.623 213.672 207.315 213.857 207.225C214.086 207.634 214.103 208.015 214.103 208.015C214.103 208.015 214.317 210.042 213.598 211.981L213.598 211.982Z" fill="#B72214"/>
<path d="M234.206 247.661H150.499C150.247 247.661 150.023 247.501 149.942 247.262L131.087 191.577C131.023 191.387 131.06 191.177 131.186 191.02C131.313 190.864 131.509 190.785 131.71 190.805L234.271 202.254C234.569 202.287 234.794 202.539 234.794 202.838V247.074C234.794 247.398 234.531 247.661 234.206 247.661ZM150.921 246.486H233.618V203.364L132.497 192.076L150.92 246.486H150.921Z" fill="#8592A2"/>
<path d="M234.106 247.662H150.875C150.55 247.662 150.287 247.399 150.287 247.074C150.287 246.749 150.55 246.486 150.875 246.486H234.106C234.431 246.486 234.694 246.749 234.694 247.074C234.694 247.399 234.431 247.662 234.106 247.662Z" fill="#8592A2"/>
<path d="M220.317 247.661C219.992 247.661 219.729 247.398 219.729 247.074V201.288C219.729 200.964 219.992 200.701 220.317 200.701C220.641 200.701 220.905 200.964 220.905 201.288V247.074C220.905 247.398 220.641 247.661 220.317 247.661Z" fill="#8592A2"/>
<path d="M206.428 247.661C206.103 247.661 205.84 247.398 205.84 247.074V199.737C205.84 199.412 206.103 199.149 206.428 199.149C206.753 199.149 207.016 199.412 207.016 199.737V247.074C207.016 247.398 206.753 247.661 206.428 247.661Z" fill="#8592A2"/>
<path d="M192.541 247.661C192.216 247.661 191.953 247.398 191.953 247.074V198.187C191.953 197.862 192.216 197.599 192.541 197.599C192.866 197.599 193.129 197.862 193.129 198.187V247.074C193.129 247.398 192.866 247.661 192.541 247.661Z" fill="#8592A2"/>
<path d="M178.652 247.661C178.327 247.661 178.064 247.398 178.064 247.074V196.638C178.064 196.313 178.327 196.05 178.652 196.05C178.977 196.05 179.24 196.313 179.24 196.638V247.074C179.24 247.398 178.977 247.661 178.652 247.661Z" fill="#8592A2"/>
<path d="M164.763 247.661C164.439 247.661 164.176 247.398 164.176 247.074V195.292C164.176 194.967 164.439 194.704 164.763 194.704C165.088 194.704 165.351 194.967 165.351 195.292V247.074C165.351 247.398 165.088 247.661 164.763 247.661Z" fill="#8592A2"/>
<path d="M150.876 247.661C150.551 247.661 150.288 247.398 150.288 247.074V193.536C150.288 193.211 150.551 192.948 150.876 192.948C151.201 192.948 151.464 193.211 151.464 193.536V247.074C151.464 247.398 151.201 247.661 150.876 247.661Z" fill="#8592A2"/>
<path d="M136.989 206.569C136.664 206.569 136.401 206.306 136.401 205.982V191.985C136.401 191.66 136.664 191.397 136.989 191.397C137.313 191.397 137.576 191.66 137.576 191.985V205.982C137.576 206.306 137.313 206.569 136.989 206.569Z" fill="#8592A2"/>
<path d="M166.608 195.88H132.457C132.132 195.88 131.869 195.617 131.869 195.292C131.869 194.968 132.132 194.704 132.457 194.704H166.608C166.933 194.704 167.196 194.968 167.196 195.292C167.196 195.617 166.933 195.88 166.608 195.88Z" fill="#8592A2"/>
<path d="M234.106 210.862H137.785C137.461 210.862 137.198 210.599 137.198 210.274C137.198 209.949 137.461 209.686 137.785 209.686H234.106C234.431 209.686 234.694 209.949 234.694 210.274C234.694 210.599 234.431 210.862 234.106 210.862Z" fill="#8592A2"/>
<path d="M234.106 224.351H142.583C142.259 224.351 141.996 224.088 141.996 223.763C141.996 223.438 142.259 223.175 142.583 223.175H234.106C234.431 223.175 234.694 223.438 234.694 223.763C234.694 224.088 234.431 224.351 234.106 224.351Z" fill="#8592A2"/>
<path d="M146.926 236.559C146.601 236.559 146.338 236.296 146.338 235.971C146.338 235.646 146.601 235.383 146.926 235.383H234.106C234.431 235.383 234.694 235.646 234.694 235.971C234.694 236.296 234.431 236.559 234.106 236.559H146.926Z" fill="#8592A2"/>
<path d="M239.128 275.586H144.297C143.388 275.586 142.651 274.849 142.651 273.94V262.645C142.651 262.238 142.802 261.844 143.076 261.542L152.145 251.497C152.457 251.152 152.898 250.955 153.362 250.953C153.564 250.953 215.477 250.741 215.392 250.741C216.299 250.741 217.036 251.475 217.039 252.382C217.042 253.291 216.307 254.03 215.398 254.034L154.102 254.244L145.945 263.279V272.294H239.128C240.037 272.294 240.775 273.032 240.775 273.941C240.775 274.85 240.038 275.587 239.128 275.587V275.586Z" fill="#27254C"/>
<path d="M151.816 253.15L127.878 185.702H114.711C113.802 185.702 113.065 184.965 113.065 184.055C113.065 183.146 113.802 182.409 114.711 182.409H129.041C129.738 182.409 130.36 182.848 130.593 183.505L154.919 252.049C155.223 252.906 154.774 253.847 153.918 254.151C153.061 254.455 152.12 254.007 151.816 253.15Z" fill="#27254C"/>
<path d="M105.597 184.055C105.597 185.542 106.801 186.746 108.289 186.746H121.828C122.88 186.746 123.79 186.144 124.225 185.263C124.417 184.901 124.519 184.491 124.519 184.055C124.519 182.568 123.316 181.364 121.828 181.364H108.289C107.829 181.364 107.398 181.481 107.022 181.687C106.175 182.133 105.598 183.028 105.598 184.055L105.597 184.055Z" fill="#8D3826"/>
<path d="M106.727 182.895C106.727 184.377 107.931 185.586 109.419 185.586H122.958C123.418 185.586 123.848 185.469 124.225 185.263C124.416 184.901 124.519 184.491 124.519 184.055C124.519 182.568 123.315 181.364 121.827 181.364H108.288C107.828 181.364 107.398 181.481 107.021 181.687C106.83 182.049 106.727 182.46 106.727 182.896V182.895Z" fill="#C86150"/>
<path d="M162.888 292.87C166.167 289.591 166.167 284.276 162.888 280.997C159.61 277.718 154.293 277.718 151.014 280.997C147.735 284.276 147.735 289.591 151.014 292.87C154.293 296.149 159.609 296.149 162.888 292.87Z" fill="#27254C"/>
<path d="M151.613 286.934C151.613 289.882 154.003 292.272 156.951 292.272C159.9 292.272 162.29 289.882 162.29 286.934C162.29 283.985 159.9 281.596 156.951 281.596C154.003 281.596 151.613 283.985 151.613 286.934Z" fill="#EDF1F5"/>
<path d="M159.455 289.437C160.838 288.054 160.838 285.812 159.455 284.43C158.072 283.047 155.83 283.047 154.448 284.43C153.065 285.812 153.065 288.054 154.448 289.437C155.83 290.82 158.072 290.82 159.455 289.437Z" fill="#27254C"/>
<path d="M148.251 277.199C148.42 278.838 149.253 282.333 151.512 284.741C153.8 287.18 156.517 288.492 157.708 288.275C157.819 288.255 157.914 288.223 157.998 288.177C158.974 287.629 158.892 286.084 157.714 284.496C156.838 283.319 156.311 279.495 156.096 277.708C156.066 277.464 156.044 277.257 156.026 277.101C156.002 276.886 155.82 276.724 155.601 276.724H148.676C148.422 276.724 148.225 276.945 148.251 277.199Z" fill="#9FADB7"/>
<path d="M151.924 280.99C152.422 282.55 153.254 284.322 154.57 285.724C155.589 286.811 156.693 287.673 157.708 288.275C157.819 288.255 157.914 288.223 157.998 288.177C158.974 287.629 158.892 286.084 157.715 284.496C156.838 283.319 156.311 279.495 156.096 277.708H154.307C152.603 277.708 151.405 279.367 151.923 280.99L151.924 280.99Z" fill="#BFC9D1"/>
<path d="M146.633 275.979C146.633 276.188 146.713 276.375 146.851 276.508C146.985 276.642 147.167 276.726 147.371 276.726H157.199C157.595 276.726 157.924 276.41 157.938 276.015C157.942 276.001 157.942 275.992 157.942 275.979C157.942 275.774 157.858 275.591 157.725 275.453C157.587 275.32 157.404 275.24 157.199 275.24H147.371C147.309 275.24 147.251 275.249 147.193 275.262C146.873 275.338 146.633 275.632 146.633 275.979H146.633Z" fill="#18142E"/>
<path d="M147.189 275.293C147.189 275.502 147.269 275.685 147.407 275.818C147.541 275.956 147.723 276.036 147.928 276.036H157.755C157.818 276.036 157.88 276.028 157.938 276.014C157.942 276 157.942 275.992 157.942 275.978C157.942 275.773 157.858 275.591 157.725 275.453C157.587 275.319 157.404 275.239 157.199 275.239H147.371C147.309 275.239 147.251 275.248 147.193 275.261C147.189 275.27 147.189 275.284 147.189 275.292L147.189 275.293Z" fill="#27254C"/>
<path d="M239.46 292.76C242.739 289.481 242.739 284.166 239.46 280.887C236.181 277.608 230.865 277.608 227.586 280.887C224.307 284.166 224.307 289.481 227.586 292.76C230.865 296.038 236.181 296.038 239.46 292.76Z" fill="#27254C"/>
<path d="M228.184 286.822C228.184 289.771 230.573 292.16 233.522 292.16C236.471 292.16 238.861 289.771 238.861 286.822C238.861 283.874 236.471 281.485 233.522 281.485C230.573 281.485 228.184 283.874 228.184 286.822Z" fill="#EDF1F5"/>
<path d="M234.101 290.306C236.031 289.992 237.342 288.174 237.028 286.243C236.715 284.313 234.896 283.003 232.966 283.316C231.036 283.629 229.725 285.448 230.038 287.378C230.351 289.308 232.17 290.619 234.101 290.306Z" fill="#27254C"/>
<path d="M224.822 277.199C224.991 278.838 225.824 282.333 228.083 284.741C230.372 287.18 233.088 288.492 234.279 288.275C234.39 288.255 234.485 288.223 234.569 288.177C235.545 287.629 235.463 286.084 234.285 284.496C233.409 283.319 232.882 279.495 232.667 277.708C232.638 277.464 232.615 277.257 232.597 277.101C232.573 276.886 232.391 276.724 232.173 276.724H225.247C224.993 276.724 224.796 276.945 224.822 277.199Z" fill="#9FADB7"/>
<path d="M228.494 280.99C228.992 282.55 229.825 284.322 231.141 285.724C232.159 286.811 233.264 287.673 234.278 288.275C234.389 288.255 234.485 288.223 234.568 288.177C235.544 287.629 235.463 286.084 234.285 284.496C233.408 283.319 232.881 279.495 232.666 277.708H230.877C229.174 277.708 227.975 279.367 228.494 280.99L228.494 280.99Z" fill="#BFC9D1"/>
<path d="M223.422 276.508C223.556 276.642 223.738 276.726 223.942 276.726H233.77C234.166 276.726 234.491 276.415 234.509 276.019C234.513 276.006 234.513 275.992 234.513 275.979C234.513 275.774 234.429 275.591 234.296 275.453C234.158 275.32 233.975 275.24 233.77 275.24C223.37 275.254 223.918 275.205 223.715 275.28C223.173 275.442 223.04 276.14 223.421 276.508H223.422Z" fill="#18142E"/>
<path d="M223.712 275.311C223.712 275.52 223.796 275.707 223.929 275.841C224.063 275.974 224.25 276.058 224.455 276.058C234.84 276.045 234.314 276.092 234.51 276.018C234.514 276.005 234.514 275.992 234.514 275.978C234.514 275.576 234.189 275.239 233.771 275.239C223.37 275.254 223.919 275.204 223.716 275.279C223.712 275.289 223.712 275.302 223.712 275.311Z" fill="#27254C"/>
<path d="M266.64 52.254H251.704C251.466 52.254 251.274 52.0615 251.274 51.8243C251.274 51.5872 251.466 51.3946 251.704 51.3946H266.64C266.878 51.3946 267.07 51.5872 267.07 51.8243C267.07 52.0615 266.878 52.254 266.64 52.254Z" fill="#9FADB7"/>
<path d="M266.64 56.5858H251.704C251.466 56.5858 251.274 56.3932 251.274 56.1561C251.274 55.9189 251.466 55.7263 251.704 55.7263H266.64C266.878 55.7263 267.07 55.9189 267.07 56.1561C267.07 56.3932 266.878 56.5858 266.64 56.5858Z" fill="#9FADB7"/>
<path d="M266.64 60.9161H251.704C251.466 60.9161 251.274 60.7235 251.274 60.4864C251.274 60.2493 251.466 60.0567 251.704 60.0567H266.64C266.878 60.0567 267.07 60.2493 267.07 60.4864C267.07 60.7235 266.878 60.9161 266.64 60.9161Z" fill="#9FADB7"/>
<path d="M20.1742 278.114C20.1742 278.114 20.1706 278.114 20.1684 278.114C20.1225 278.112 20.0872 278.071 20.0908 278.025C20.5292 271.531 21.5749 265.039 23.1977 258.733C24.3612 254.211 26.0314 249.093 29.5947 245.416C30.0151 244.982 30.6598 244.42 31.3741 244.582C32.2904 244.785 32.5477 245.955 32.483 246.983C32.3156 249.65 31.6242 252.338 30.4822 254.755C30.3098 255.121 30.0244 255.61 29.54 255.626C29.5321 255.626 29.525 255.626 29.517 255.626C29.0664 255.626 28.7373 255.173 28.7093 254.74C28.6812 254.304 28.8846 253.883 29.047 253.544C29.0672 253.502 29.1175 253.485 29.1584 253.504C29.2001 253.524 29.2174 253.575 29.198 253.616C29.0355 253.953 28.8508 254.336 28.8767 254.729C28.899 255.083 29.1678 255.466 29.5343 255.457C29.8333 255.447 30.0862 255.202 30.3306 254.683C31.4632 252.284 32.1496 249.618 32.3149 246.971C32.3752 246.012 32.1503 244.923 31.3375 244.744C30.7022 244.604 30.1071 245.125 29.714 245.531C26.1773 249.18 24.5172 254.273 23.3587 258.773C21.738 265.07 20.6945 271.551 20.2561 278.035C20.2533 278.079 20.2166 278.113 20.1728 278.113L20.1742 278.114Z" fill="#4D49D4"/>
<path d="M11.2373 269.944C11.1956 269.944 11.159 269.913 11.1539 269.87C10.4705 264.212 9.764 258.361 7.29246 253.096C6.82963 252.11 6.27768 251.11 5.38148 250.476C4.55069 249.888 3.25634 249.664 2.39177 250.373C1.66878 250.966 1.40646 252.043 1.61344 253.573C1.67956 254.066 1.78233 254.636 2.04177 255.124C2.31559 255.639 2.74033 256.001 3.20747 256.114C3.73714 256.244 4.30634 256.017 4.52985 255.585C4.58087 255.487 4.72964 255.563 4.67861 255.662C4.41989 256.16 3.77092 256.423 3.16795 256.276C2.65481 256.15 2.19054 255.759 1.89444 255.201C1.62278 254.69 1.51642 254.102 1.44814 253.594C1.23326 252.002 1.5157 250.875 2.28684 250.243C3.21682 249.481 4.59668 249.714 5.47922 250.338C6.40704 250.995 6.97264 252.017 7.44553 253.024C9.92858 258.313 10.6372 264.177 11.3221 269.849C11.3278 269.895 11.2948 269.937 11.2488 269.942C11.2452 269.942 11.2423 269.942 11.2387 269.942L11.2373 269.944Z" fill="#449FFA"/>
<path d="M22.6421 256.961C22.5968 256.961 22.5602 256.925 22.5587 256.88C22.2562 247.921 23.4866 239.047 26.2147 230.508C26.229 230.464 26.2758 230.439 26.3196 230.454C26.3642 230.468 26.3879 230.515 26.3742 230.559C23.6511 239.08 22.4236 247.934 22.7255 256.875C22.7269 256.921 22.691 256.96 22.645 256.962H22.6421V256.961Z" fill="#4D49D4"/>
<path d="M12.6645 285.563L26.4596 286.413C30.5029 283.86 33.7945 280.342 36.0547 276.425C37.5862 273.779 36.3192 272.003 33.6155 273.158C30.0595 274.673 27.1869 277.699 25.8552 281.324C27.8999 275.432 29.7002 270.228 30.3089 268.468C30.5496 267.784 30.7904 267.067 30.707 266.349C30.6416 265.762 30.2995 265.171 29.7871 264.916C28.9419 264.51 28.1492 265.142 27.5139 265.832C26.0859 267.391 24.8462 269.152 23.8788 270.925C22.4645 273.512 21.4792 276.337 20.9926 279.245C22.2481 268.99 23.0876 259.195 23.6287 249.495C23.9931 242.732 24.0355 241.937 23.646 240.82C23.3132 239.862 22.5162 238.994 21.5086 238.88C20.2164 238.736 19.1262 239.808 18.3644 240.864C15.9029 244.267 14.5633 248.471 14.5805 252.665C14.4052 249.862 13.7663 247.086 12.7019 244.489C10.8491 247.463 10.3899 251.088 10.2146 254.587C9.7855 263.179 10.819 271.84 13.2582 280.09C10.8757 274.388 8.489 268.687 6.10657 262.981C4.54344 270.973 7.06529 279.651 12.6624 285.563H12.6645Z" fill="#449FFA"/>
<path d="M5.8889 289.213C8.31301 288.718 10.7371 288.224 13.1612 287.729C11.9495 287.394 10.7386 287.059 9.52687 286.724C9.06332 286.596 8.54658 286.425 8.33601 285.992C8.13478 285.578 8.31014 285.058 8.63858 284.734C8.96701 284.411 9.41619 284.246 9.85746 284.111C14.4153 282.727 19.3455 283.814 23.8602 285.332C28.375 286.85 32.8229 288.814 37.5698 289.213C13.655 289.11 9.85962 289.232 5.88818 289.213H5.8889Z" fill="#5F69F6"/>
<path d="M21.8701 271.516C22.2208 268.18 22.5313 264.834 22.8072 261.493C21.2764 261.232 19.0787 262.955 18.8394 266.253C18.6468 268.964 19.9914 271.284 21.8701 271.516Z" fill="#5F69F6"/>
<path d="M30.099 283.685C31.6449 282.332 33.042 280.808 34.2637 279.153C31.3401 278.8 29.1848 281.123 30.099 283.685Z" fill="#5F69F6"/>
<path d="M28.8774 272.606C30.5735 267.706 30.8135 267.258 30.7079 266.349C30.6425 265.762 30.3004 265.171 29.788 264.917C27.8641 266.628 27.4293 270.332 28.8767 272.606L28.8774 272.606Z" fill="#5F69F6"/>
<path d="M22.3215 246.78C22.3344 248.01 22.8734 249.061 23.6309 249.495C23.7315 247.625 23.8235 245.755 23.9026 243.885C22.987 244.191 22.3085 245.37 22.3215 246.78Z" fill="#5F69F6"/>
<g opacity="0.2">
<path d="M131.976 250.986C131.976 253.448 123.531 255.45 113.115 255.45C102.698 255.45 94.2537 253.448 94.2537 250.986C94.2537 248.525 102.698 246.523 113.115 246.523C123.531 246.523 131.976 248.519 131.976 250.986Z" fill="#9A9AE2"/>
</g>
<g opacity="0.2">
<path d="M294.859 265.902C294.859 268.364 286.415 270.366 275.998 270.366C265.581 270.366 257.137 268.364 257.137 265.902C257.137 263.441 265.581 261.439 275.998 261.439C286.415 261.439 294.859 263.435 294.859 265.902Z" fill="#9A9AE2"/>
</g>
<g opacity="0.2">
<path d="M107.354 298.15C107.354 300.428 99.5373 302.282 89.8962 302.282C80.2551 302.282 72.4387 300.428 72.4387 298.15C72.4387 295.873 80.2551 294.019 89.8962 294.019C99.5373 294.019 107.354 295.867 107.354 298.15Z" fill="#9A9AE2"/>
</g>
<g opacity="0.2">
<path d="M209.899 304.869C209.899 307.147 196.703 309 180.426 309C164.148 309 150.952 307.147 150.952 304.869C150.952 302.591 164.149 300.737 180.426 300.737C196.702 300.737 209.899 302.585 209.899 304.869Z" fill="#9A9AE2"/>
</g>
<g opacity="0.2">
<path d="M196.099 285.219C196.099 287.218 189.901 288.845 182.255 288.845C174.609 288.845 168.41 287.218 168.41 285.219C168.41 283.22 174.609 281.594 182.255 281.594C189.901 281.594 196.099 283.215 196.099 285.219Z" fill="#9A9AE2"/>
</g>
</g>
<defs>
<linearGradient id="paint0_linear_372_1958" x1="0" y1="120.195" x2="304.762" y2="120.195" gradientUnits="userSpaceOnUse">
<stop stop-color="#623CF4"/>
<stop offset="0.24" stop-color="#613EF4"/>
<stop offset="0.39" stop-color="#5D47F4"/>
<stop offset="0.51" stop-color="#5855F5"/>
<stop offset="0.62" stop-color="#506AF6"/>
<stop offset="0.72" stop-color="#4684F8"/>
<stop offset="0.82" stop-color="#3AA5F9"/>
<stop offset="0.91" stop-color="#2BCCFC"/>
<stop offset="0.99" stop-color="#1AF8FE"/>
<stop offset="1" stop-color="#18FFFF"/>
</linearGradient>
<linearGradient id="paint1_linear_372_1958" x1="7.18042" y1="226.363" x2="299.428" y2="226.363" gradientUnits="userSpaceOnUse">
<stop stop-color="#623CF4"/>
<stop offset="0.24" stop-color="#613EF4"/>
<stop offset="0.39" stop-color="#5D47F4"/>
<stop offset="0.51" stop-color="#5855F5"/>
<stop offset="0.62" stop-color="#506AF6"/>
<stop offset="0.72" stop-color="#4684F8"/>
<stop offset="0.82" stop-color="#3AA5F9"/>
<stop offset="0.91" stop-color="#2BCCFC"/>
<stop offset="0.99" stop-color="#1AF8FE"/>
<stop offset="1" stop-color="#18FFFF"/>
</linearGradient>
<linearGradient id="paint2_linear_372_1958" x1="7.08472" y1="106.272" x2="297.681" y2="106.272" gradientUnits="userSpaceOnUse">
<stop stop-color="#623CF4"/>
<stop offset="0.24" stop-color="#613EF4"/>
<stop offset="0.39" stop-color="#5D47F4"/>
<stop offset="0.51" stop-color="#5855F5"/>
<stop offset="0.62" stop-color="#506AF6"/>
<stop offset="0.72" stop-color="#4684F8"/>
<stop offset="0.82" stop-color="#3AA5F9"/>
<stop offset="0.91" stop-color="#2BCCFC"/>
<stop offset="0.99" stop-color="#1AF8FE"/>
<stop offset="1" stop-color="#18FFFF"/>
</linearGradient>
<linearGradient id="paint3_linear_372_1958" x1="0.20992" y1="272.957" x2="306" y2="272.957" gradientUnits="userSpaceOnUse">
<stop stop-color="#623CF4"/>
<stop offset="0.24" stop-color="#613EF4"/>
<stop offset="0.39" stop-color="#5D47F4"/>
<stop offset="0.51" stop-color="#5855F5"/>
<stop offset="0.62" stop-color="#506AF6"/>
<stop offset="0.72" stop-color="#4684F8"/>
<stop offset="0.82" stop-color="#3AA5F9"/>
<stop offset="0.91" stop-color="#2BCCFC"/>
<stop offset="0.99" stop-color="#1AF8FE"/>
<stop offset="1" stop-color="#18FFFF"/>
</linearGradient>
<linearGradient id="paint4_linear_372_1958" x1="261.344" y1="141.128" x2="290.653" y2="141.128" gradientUnits="userSpaceOnUse">
<stop stop-color="#623CF4"/>
<stop offset="0.24" stop-color="#613EF4"/>
<stop offset="0.39" stop-color="#5D47F4"/>
<stop offset="0.51" stop-color="#5855F5"/>
<stop offset="0.62" stop-color="#506AF6"/>
<stop offset="0.72" stop-color="#4684F8"/>
<stop offset="0.82" stop-color="#3AA5F9"/>
<stop offset="0.91" stop-color="#2BCCFC"/>
<stop offset="0.99" stop-color="#1AF8FE"/>
<stop offset="1" stop-color="#18FFFF"/>
</linearGradient>
<linearGradient id="paint5_linear_372_1958" x1="161.512" y1="141.134" x2="281.782" y2="141.134" gradientUnits="userSpaceOnUse">
<stop stop-color="#623CF4"/>
<stop offset="0.24" stop-color="#613EF4"/>
<stop offset="0.39" stop-color="#5D47F4"/>
<stop offset="0.51" stop-color="#5855F5"/>
<stop offset="0.62" stop-color="#506AF6"/>
<stop offset="0.72" stop-color="#4684F8"/>
<stop offset="0.82" stop-color="#3AA5F9"/>
<stop offset="0.91" stop-color="#2BCCFC"/>
<stop offset="0.99" stop-color="#1AF8FE"/>
<stop offset="1" stop-color="#18FFFF"/>
</linearGradient>
<linearGradient id="paint6_linear_372_1958" x1="208.389" y1="36.5662" x2="241.493" y2="36.5662" gradientUnits="userSpaceOnUse">
<stop stop-color="#623CF4"/>
<stop offset="0.24" stop-color="#613EF4"/>
<stop offset="0.39" stop-color="#5D47F4"/>
<stop offset="0.51" stop-color="#5855F5"/>
<stop offset="0.62" stop-color="#506AF6"/>
<stop offset="0.72" stop-color="#4684F8"/>
<stop offset="0.82" stop-color="#3AA5F9"/>
<stop offset="0.91" stop-color="#2BCCFC"/>
<stop offset="0.99" stop-color="#1AF8FE"/>
<stop offset="1" stop-color="#18FFFF"/>
</linearGradient>
<linearGradient id="paint7_linear_372_1958" x1="251.942" y1="36.5418" x2="256.011" y2="36.5418" gradientUnits="userSpaceOnUse">
<stop stop-color="#623CF4"/>
<stop offset="0.24" stop-color="#613EF4"/>
<stop offset="0.39" stop-color="#5D47F4"/>
<stop offset="0.51" stop-color="#5855F5"/>
<stop offset="0.62" stop-color="#506AF6"/>
<stop offset="0.72" stop-color="#4684F8"/>
<stop offset="0.82" stop-color="#3AA5F9"/>
<stop offset="0.91" stop-color="#2BCCFC"/>
<stop offset="0.99" stop-color="#1AF8FE"/>
<stop offset="1" stop-color="#18FFFF"/>
</linearGradient>
<linearGradient id="paint8_linear_372_1958" x1="283.15" y1="67.2176" x2="286.434" y2="67.2176" gradientUnits="userSpaceOnUse">
<stop stop-color="#623CF4"/>
<stop offset="0.24" stop-color="#613EF4"/>
<stop offset="0.39" stop-color="#5D47F4"/>
<stop offset="0.51" stop-color="#5855F5"/>
<stop offset="0.62" stop-color="#506AF6"/>
<stop offset="0.72" stop-color="#4684F8"/>
<stop offset="0.82" stop-color="#3AA5F9"/>
<stop offset="0.91" stop-color="#2BCCFC"/>
<stop offset="0.99" stop-color="#1AF8FE"/>
<stop offset="1" stop-color="#18FFFF"/>
</linearGradient>
<linearGradient id="paint9_linear_372_1958" x1="283.032" y1="83.0628" x2="286.128" y2="83.0628" gradientUnits="userSpaceOnUse">
<stop stop-color="#623CF4"/>
<stop offset="0.24" stop-color="#613EF4"/>
<stop offset="0.39" stop-color="#5D47F4"/>
<stop offset="0.51" stop-color="#5855F5"/>
<stop offset="0.62" stop-color="#506AF6"/>
<stop offset="0.72" stop-color="#4684F8"/>
<stop offset="0.82" stop-color="#3AA5F9"/>
<stop offset="0.91" stop-color="#2BCCFC"/>
<stop offset="0.99" stop-color="#1AF8FE"/>
<stop offset="1" stop-color="#18FFFF"/>
</linearGradient>
<linearGradient id="paint10_linear_372_1958" x1="192.803" y1="130.971" x2="248.088" y2="130.971" gradientUnits="userSpaceOnUse">
<stop stop-color="#623CF4"/>
<stop offset="0.24" stop-color="#613EF4"/>
<stop offset="0.39" stop-color="#5D47F4"/>
<stop offset="0.51" stop-color="#5855F5"/>
<stop offset="0.62" stop-color="#506AF6"/>
<stop offset="0.72" stop-color="#4684F8"/>
<stop offset="0.82" stop-color="#3AA5F9"/>
<stop offset="0.91" stop-color="#2BCCFC"/>
<stop offset="0.99" stop-color="#1AF8FE"/>
<stop offset="1" stop-color="#18FFFF"/>
</linearGradient>
<linearGradient id="paint11_linear_372_1958" x1="201.506" y1="155.002" x2="214.296" y2="155.002" gradientUnits="userSpaceOnUse">
<stop stop-color="#623CF4"/>
<stop offset="0.24" stop-color="#613EF4"/>
<stop offset="0.39" stop-color="#5D47F4"/>
<stop offset="0.51" stop-color="#5855F5"/>
<stop offset="0.62" stop-color="#506AF6"/>
<stop offset="0.72" stop-color="#4684F8"/>
<stop offset="0.82" stop-color="#3AA5F9"/>
<stop offset="0.91" stop-color="#2BCCFC"/>
<stop offset="0.99" stop-color="#1AF8FE"/>
<stop offset="1" stop-color="#18FFFF"/>
</linearGradient>
<linearGradient id="paint12_linear_372_1958" x1="228.251" y1="154.992" x2="238.989" y2="154.992" gradientUnits="userSpaceOnUse">
<stop stop-color="#623CF4"/>
<stop offset="0.24" stop-color="#613EF4"/>
<stop offset="0.39" stop-color="#5D47F4"/>
<stop offset="0.51" stop-color="#5855F5"/>
<stop offset="0.62" stop-color="#506AF6"/>
<stop offset="0.72" stop-color="#4684F8"/>
<stop offset="0.82" stop-color="#3AA5F9"/>
<stop offset="0.91" stop-color="#2BCCFC"/>
<stop offset="0.99" stop-color="#1AF8FE"/>
<stop offset="1" stop-color="#18FFFF"/>
</linearGradient>
<linearGradient id="paint13_linear_372_1958" x1="217.817" y1="155.933" x2="220.741" y2="155.933" gradientUnits="userSpaceOnUse">
<stop stop-color="#623CF4"/>
<stop offset="0.24" stop-color="#613EF4"/>
<stop offset="0.39" stop-color="#5D47F4"/>
<stop offset="0.51" stop-color="#5855F5"/>
<stop offset="0.62" stop-color="#506AF6"/>
<stop offset="0.72" stop-color="#4684F8"/>
<stop offset="0.82" stop-color="#3AA5F9"/>
<stop offset="0.91" stop-color="#2BCCFC"/>
<stop offset="0.99" stop-color="#1AF8FE"/>
<stop offset="1" stop-color="#18FFFF"/>
</linearGradient>
<linearGradient id="paint14_linear_372_1958" x1="207.855" y1="125.333" x2="235.488" y2="125.333" gradientUnits="userSpaceOnUse">
<stop stop-color="#623CF4"/>
<stop offset="0.24" stop-color="#613EF4"/>
<stop offset="0.39" stop-color="#5D47F4"/>
<stop offset="0.51" stop-color="#5855F5"/>
<stop offset="0.62" stop-color="#506AF6"/>
<stop offset="0.72" stop-color="#4684F8"/>
<stop offset="0.82" stop-color="#3AA5F9"/>
<stop offset="0.91" stop-color="#2BCCFC"/>
<stop offset="0.99" stop-color="#1AF8FE"/>
<stop offset="1" stop-color="#18FFFF"/>
</linearGradient>
<clipPath id="clip0_372_1958">
<rect width="306" height="309" fill="white"/>
</clipPath>
</defs>
</svg>
