<svg width="403" height="276" viewBox="0 0 403 276" fill="none" xmlns="http://www.w3.org/2000/svg">
<g clip-path="url(#clip0_377_3123)">
<path d="M341.139 35.5013L265.397 146.456C295.758 165.623 336.056 157.442 356.494 127.501C376.933 97.5595 369.952 56.9378 341.139 35.5013Z" fill="#ACD3F7"/>
<path d="M237.969 139.716L162.493 104.262L160.265 103.215L146.031 63.8611C146.495 63.4487 146.962 63.0332 147.431 62.6168C169.118 43.3195 197.184 18.8758 197.184 18.8758L237.968 139.717L237.969 139.716Z" fill="#ACD3F7"/>
<path d="M90.798 251.692C118.096 251.692 140.226 229.505 140.226 202.136C140.226 174.767 118.096 152.58 90.798 152.58C63.4994 152.58 41.3696 174.767 41.3696 202.136C41.3696 229.505 63.4994 251.692 90.798 251.692Z" fill="#ACD3F7"/>
<path d="M152.328 76.157L150.849 77.1841L84.1432 123.558C82.962 124.38 81.9995 123.826 81.5322 123.425C81.0649 123.021 80.371 122.151 81.002 120.855L109.814 61.5757L144.021 58.2993L145.81 58.1291L142.644 49.3769L140.856 49.5491L109.07 52.5923L105.028 46.7461C104.347 45.7651 103.309 45.0934 102.135 44.8802C100.962 44.6669 99.7513 44.9302 98.7728 45.6109C97.4508 46.5309 95.8523 46.8773 94.2697 46.59C92.6891 46.3047 91.3122 45.4167 90.3976 44.0913C88.5065 41.3575 89.1865 37.5905 91.9133 35.6945C93.2353 34.7765 94.8338 34.4282 96.4144 34.7155C97.997 35.0028 99.3739 35.8907 100.289 37.2141C101.705 39.2613 104.506 39.7688 106.545 38.3503C108.585 36.9338 109.091 34.1259 107.678 32.0787C105.393 28.7762 101.962 26.5639 98.018 25.8462C94.074 25.1314 90.0861 25.9983 86.7922 28.2877C79.9906 33.0157 78.2952 42.4096 83.0109 49.2287C85.2964 52.5312 88.7252 54.7435 92.6712 55.4613C95.0934 55.9017 97.5307 55.7426 99.8142 55.0278L101.686 57.7307L72.9224 116.91C70.6698 121.545 71.7791 126.911 75.6812 130.269C77.7839 132.078 80.341 132.994 82.9111 132.994C85.1117 132.994 87.3223 132.322 89.2694 130.969L154.023 85.9523L155.502 84.9232L152.332 76.16L152.328 76.157Z" fill="#ACD3F7"/>
<path d="M156.539 188.289C142.801 184.71 128.771 192.976 125.201 206.749C121.385 221.477 138.89 256.398 138.89 256.398C138.89 256.398 170.853 235.529 174.952 219.708C178.522 205.933 170.277 191.867 156.539 188.289ZM147.544 223C141.598 221.452 138.032 215.364 139.576 209.403C141.121 203.443 147.192 199.865 153.138 201.414C159.083 202.962 162.65 209.05 161.105 215.01C159.561 220.971 153.489 224.548 147.544 222.999V223Z" fill="white"/>
<path d="M158.208 220.094C162.552 215.738 162.552 208.677 158.208 204.321C153.864 199.966 146.821 199.966 142.476 204.321C138.132 208.677 138.132 215.738 142.476 220.094C146.821 224.449 153.864 224.449 158.208 220.094Z" fill="#1C85E8"/>
<path d="M148.747 256.344L148.363 255.95C147.245 254.803 120.978 227.688 120.158 212.484C119.379 198.024 130.478 185.625 144.899 184.844C159.321 184.064 171.686 195.189 172.468 209.648C173.348 225.973 150.085 254.703 149.095 255.917L148.747 256.343V256.344ZM146.33 185.791C145.872 185.791 145.414 185.803 144.952 185.828C131.072 186.58 120.39 198.514 121.139 212.431C121.886 226.291 145.37 251.388 148.681 254.861C151.634 251.147 172.289 224.583 171.486 209.701C170.76 196.247 159.61 185.79 146.33 185.79V185.791Z" fill="#002245"/>
<path d="M97.7354 236.798H91.2124H78.8863H70.6109H65.8961H57.6218V250.753H54.6883H49.8607H40.7377H34.613H31.1234H24.9998V276H40.7377H55.4322H57.6218H63.8113H64.019H76.6087H78.8863H110.062V236.798H97.7354Z" fill="white"/>
<path d="M113.574 236.798H82.3977V276H113.574V236.798Z" fill="#1C85E8"/>
<path d="M82.3977 236.798H61.1333V276H82.3977V236.798Z" fill="#002245"/>
<path d="M101.247 236.798H94.7249V248.003H101.247V236.798Z" fill="#002245"/>
<path d="M74.1235 236.798H69.4087V248.003H74.1235V236.798Z" fill="#1C85E8"/>
<path d="M67.3227 250.753H44.249V276H67.3227V250.753Z" fill="#1C85E8"/>
<path d="M44.2491 250.753H28.5112V276H44.2491V250.753Z" fill="#002245"/>
<path d="M58.1997 250.753H53.3721V257.969H58.1997V250.753Z" fill="#002245"/>
<path d="M38.1254 250.753H34.6357V257.969H38.1254V250.753Z" fill="#1C85E8"/>
<path d="M80.1202 261.481H67.5305V276H80.1202V261.481Z" fill="#1C85E8"/>
<path d="M67.5305 261.481H58.9436V276H67.5305V261.481Z" fill="#002245"/>
<path d="M75.1428 261.481H72.5088V265.631H75.1428V261.481Z" fill="#002245"/>
<path d="M64.1895 261.481H62.2854V265.631H64.1895V261.481Z" fill="#1C85E8"/>
<path d="M336.694 162.899L333.68 194.488L326.638 193.813L320.294 260.328C319.911 264.339 316.358 267.277 312.362 266.893L218.039 257.851L216.123 257.668L210.596 242.384L207.776 234.586L204.362 225.148L204.75 221.101L207.624 190.951L208.431 182.482L201.386 181.806L204.397 150.217C204.678 147.292 207.27 145.146 210.187 145.426L235.82 147.884C235.75 147.832 223.69 138.936 226.834 124.317C229.101 113.771 251.953 124.239 264.598 130.944C265.065 129.86 266.188 129.152 267.423 129.27L278.77 130.358C280.005 130.476 280.973 131.385 281.228 132.538C294.909 128.357 319.326 122.422 319.561 133.208C319.882 148.156 306.36 154.602 306.282 154.639L331.915 157.096C334.832 157.375 336.972 159.974 336.694 162.901V162.899Z" fill="#ACD3F7"/>
<path d="M323.589 188.758L322.895 191.835V191.837L321.024 200.133L308.211 257.012C307.326 260.942 303.429 263.406 299.513 262.519L259.049 253.356L238.339 248.667L212.608 242.84L210.595 242.385L207.775 234.587L197.762 206.904L198.473 203.752L205.196 173.907L207.066 165.608L207.76 162.532L255.317 173.301L276.029 177.99L323.589 188.759V188.758Z" fill="url(#paint0_linear_377_3123)"/>
<path d="M329.797 193.399L200.163 164.045L207.136 133.091C207.782 130.224 210.624 128.425 213.483 129.073L332.762 156.082C335.621 156.73 337.415 159.579 336.769 162.446L329.796 193.4L329.797 193.399Z" fill="url(#paint1_linear_377_3123)"/>
<path d="M207.079 165.616L205.209 173.915L321.036 200.149L322.906 191.85L207.079 165.616Z" fill="#002245"/>
<path d="M283.468 144.933L262.758 140.242L238.325 248.676L259.035 253.367L283.468 144.933Z" fill="white"/>
<path d="M323.52 130.817C325.004 116.688 281.229 126.01 276.625 127.029C272.904 124.125 237.376 96.8448 232.659 110.244C227.683 124.387 238.603 134.762 238.603 134.762L273.123 142.578L307.643 150.394C307.643 150.394 321.951 145.731 323.521 130.817H323.52Z" fill="url(#paint2_linear_377_3123)"/>
<path d="M281.402 144.452L264.844 140.702L268.963 122.413C269.303 120.907 270.795 119.962 272.297 120.301L283.416 122.819C284.918 123.159 285.86 124.656 285.522 126.162L281.402 144.451V144.452Z" fill="#002245"/>
<path d="M215.081 99.7493C224.926 89.8786 224.926 73.875 215.081 64.0043C205.235 54.1336 189.273 54.1336 179.428 64.0043C169.582 73.875 169.582 89.8786 179.428 99.7493C189.273 109.62 205.235 109.62 215.081 99.7493Z" fill="#002245"/>
<path d="M217.71 94.0618C227.555 84.191 227.555 68.1875 217.71 58.3167C207.864 48.446 191.902 48.446 182.057 58.3167C172.211 68.1874 172.211 84.191 182.057 94.0618C191.902 103.932 207.864 103.932 217.71 94.0618Z" fill="white"/>
<path d="M200.184 67.4749L199.613 65.5469L203.084 64.5128L202.585 62.829L199.114 63.8631L199.089 63.78C198.839 62.9351 197.944 62.4486 197.101 62.6999L195.293 63.2384C194.45 63.4897 193.965 64.3867 194.216 65.2315L195.311 68.9264C192.577 70.2959 191.119 73.4932 192.018 76.5254L195.784 89.2358C195.924 89.7063 196.416 89.9735 196.886 89.8344L210.251 85.8532C210.72 85.7131 210.987 85.2195 210.848 84.749L207.082 72.0387C206.183 69.0055 203.221 67.1255 200.184 67.4749Z" fill="#1C85E8"/>
<path d="M306.82 95.9903C314.835 87.9547 314.835 74.9263 306.82 66.8906C298.805 58.8549 285.811 58.8549 277.796 66.8906C269.781 74.9263 269.781 87.9547 277.796 95.9904C285.811 104.026 298.805 104.026 306.82 95.9903Z" fill="white"/>
<path d="M283.502 90.8435C282.117 89.5391 282.048 87.3358 283.348 85.9473L296.232 72.1929C297.533 70.8044 299.731 70.7353 301.116 72.0387C302.501 73.3431 302.57 75.5464 301.269 76.9348L288.384 90.6893C287.083 92.0778 284.886 92.1478 283.501 90.8435H283.502Z" fill="#1C85E8"/>
<path d="M296.363 84.9963C294.328 87.1696 290.922 87.2767 288.754 85.2366C286.586 83.1964 286.479 79.7808 288.515 77.6076C290.55 75.4343 293.957 75.3272 296.125 77.3683C298.291 79.4084 298.398 82.824 296.363 84.9973V84.9963Z" fill="#1C85E8"/>
<path d="M292.388 85.5686C294.651 85.5214 296.447 83.6443 296.4 81.3758C296.353 79.1073 294.48 77.3066 292.218 77.3537C289.955 77.4008 288.159 79.278 288.206 81.5465C288.253 83.8149 290.125 85.6157 292.388 85.5686Z" fill="white"/>
<path d="M290.303 105.179C284.949 105.179 279.878 103.168 275.957 99.4765C271.872 95.6305 269.525 90.419 269.349 84.8041C269.173 79.1882 271.189 73.8406 275.025 69.7443C282.945 61.2894 296.249 60.8709 304.681 68.8103C313.114 76.7496 313.531 90.0876 305.611 98.5425C301.775 102.638 296.577 104.99 290.977 105.166C290.751 105.174 290.526 105.178 290.302 105.178L290.303 105.179ZM290.336 64.0243C290.121 64.0243 289.905 64.0273 289.69 64.0343C284.332 64.2034 279.36 66.4538 275.691 70.3709C272.022 74.288 270.094 79.4044 270.261 84.7751C270.43 90.1467 272.675 95.1309 276.582 98.8098C280.489 102.489 285.591 104.423 290.949 104.254C296.306 104.085 301.278 101.835 304.947 97.9169C312.523 89.8304 312.123 77.072 304.057 69.477C300.306 65.9463 295.456 64.0233 290.335 64.0233L290.336 64.0243Z" fill="#1C85E8"/>
<path d="M392.056 142.801C402.145 132.686 402.145 116.285 392.056 106.17C381.966 96.0545 365.608 96.0545 355.519 106.17C345.429 116.285 345.429 132.686 355.519 142.801C365.608 152.917 381.966 152.917 392.056 142.801Z" fill="#002245"/>
<path d="M395.426 137.469C405.516 127.354 405.516 110.954 395.426 100.838C385.337 90.7226 368.979 90.7226 358.89 100.838C348.8 110.954 348.8 127.354 358.89 137.469C368.979 147.585 385.337 147.585 395.426 137.469Z" fill="white"/>
<path d="M390.484 126.753L371.217 133.322C370.365 133.612 369.451 133.091 369.265 132.208L365.12 112.511C364.963 111.766 365.386 111.022 366.105 110.776L380.826 105.757C381.545 105.512 382.334 105.844 382.662 106.53L391.354 124.676C391.743 125.49 391.336 126.461 390.484 126.752V126.753Z" fill="#1C85E8"/>
<path d="M378.901 110.157C378.986 112.206 377.731 114.157 375.698 114.85C373.665 115.542 371.484 114.764 370.305 113.088L368.226 113.797C369.83 116.586 373.231 117.95 376.385 116.875C379.538 115.8 381.404 112.639 380.98 109.448L378.901 110.157Z" fill="white"/>
<path d="M373.43 61.0943C385.643 48.8494 385.643 28.9965 373.43 16.7517C361.216 4.50682 341.415 4.50682 329.201 16.7517C316.988 28.9965 316.988 48.8494 329.201 61.0943C341.415 73.3391 361.216 73.3391 373.43 61.0943Z" fill="#002245"/>
<path d="M376.039 53.5311C388.253 41.2862 388.253 21.4333 376.039 9.18848C363.826 -3.05639 344.024 -3.05639 331.811 9.18848C319.598 21.4333 319.598 41.2862 331.811 53.5311C344.024 65.7759 363.826 65.7759 376.039 53.5311Z" fill="url(#paint3_linear_377_3123)"/>
<path d="M345.701 17.4273C345.701 17.4273 347.621 18.4744 351.086 17.5044C354.55 16.5344 355.652 14.6424 355.652 14.6424C355.652 14.6424 356.434 19.5125 351.99 20.7558C347.547 21.9991 345.7 17.4273 345.7 17.4273H345.701Z" fill="#002245"/>
<path d="M370.462 22.1172L361.316 14.6894L356.653 14.6504L355.652 14.6424C355.652 14.6424 355.741 18.7467 351.743 19.8659C347.745 20.9851 345.701 17.4283 345.701 17.4283L340.88 20.4095L336.511 32.5792L343.754 35.5454L344.184 34.4822L346.25 29.3739L351.119 47.0244H351.117L351.409 48.0775L359.007 45.9513L366.604 43.8251L361.356 25.1464L365.762 28.4439L366.68 29.1306L371.344 22.832L370.465 22.1182L370.462 22.1172Z" fill="white"/>
<path d="M85.7132 37.9312C89.9158 33.7177 89.9158 26.8862 85.7132 22.6727C81.5105 18.4592 74.6967 18.4592 70.4941 22.6727C66.2914 26.8862 66.2914 33.7177 70.4941 37.9312C74.6967 42.1447 81.5105 42.1447 85.7132 37.9312Z" fill="#1C85E8"/>
<path d="M373.787 212.926C379.73 212.926 384.548 208.095 384.548 202.136C384.548 196.178 379.73 191.347 373.787 191.347C367.843 191.347 363.025 196.178 363.025 202.136C363.025 208.095 367.843 212.926 373.787 212.926Z" fill="#1C85E8"/>
<path d="M177.73 172.024L176.465 171.028L99.8092 110.681C99.8092 110.681 98.0579 110.5 95.0604 110.202C94.9566 110.193 94.8478 110.183 94.7369 110.17H94.7349C94.689 110.167 94.6461 110.163 94.6001 110.157H94.5981C93.6596 110.066 92.6112 109.96 91.4669 109.847C90.809 109.784 90.119 109.715 89.4021 109.644C89.3083 109.635 89.2164 109.625 89.1225 109.616C88.3976 109.544 87.6428 109.472 86.862 109.394C85.4282 109.256 83.9055 109.108 82.311 108.953C81.9655 108.92 81.618 108.887 81.2666 108.852C80.7404 108.803 80.2072 108.751 79.665 108.698C78.5847 108.595 77.4764 108.488 76.3461 108.382C75.129 108.268 73.8899 108.152 72.6268 108.034C71.4835 107.925 70.3233 107.817 69.1471 107.71C69.0073 107.697 68.8646 107.683 68.7228 107.671C68.6768 107.667 68.6339 107.663 68.588 107.659C68.3034 107.632 68.0169 107.606 67.7303 107.58C66.4423 107.461 65.1403 107.343 63.8333 107.223C63.7394 107.216 63.6455 107.207 63.5537 107.198C61.1763 106.984 58.771 106.771 56.3717 106.561C55.0817 106.45 53.7936 106.338 52.5106 106.228C52.27 106.208 52.0263 106.188 51.7857 106.166C50.5466 106.061 49.3125 105.956 48.0894 105.856C47.649 105.821 47.2107 105.785 46.7724 105.749C46.3011 105.709 45.8298 105.671 45.3635 105.632C44.9262 105.598 44.4909 105.564 44.0555 105.53C43.726 105.502 43.3995 105.476 43.076 105.452C42.7396 105.426 42.4051 105.399 42.0736 105.372C41.1051 105.298 40.1485 105.224 39.208 105.153C38.7736 105.12 38.3433 105.087 37.9159 105.054C36.4781 104.95 35.0763 104.849 33.7283 104.757C32.6151 104.679 31.5377 104.61 30.4993 104.543C30.3076 104.531 30.1179 104.518 29.9292 104.507C29.3471 104.472 28.7799 104.436 28.2258 104.403C27.8793 104.384 27.5368 104.365 27.1993 104.346C26.4475 104.306 25.7236 104.268 25.0297 104.233C24.9089 104.228 24.791 104.222 24.6732 104.217C24.5224 104.21 24.3717 104.202 24.2239 104.196C23.4461 104.161 22.7092 104.132 22.0193 104.109C21.7467 104.102 21.4841 104.092 21.2275 104.086C21.0927 104.082 20.9609 104.08 20.8281 104.075C20.3638 104.065 19.9255 104.057 19.5151 104.054H19.5131C19.0279 104.05 18.5815 104.051 18.1792 104.059C18.0853 104.059 17.9934 104.062 17.9046 104.065C17.3694 104.078 16.9131 104.101 16.5477 104.137C16.4917 104.143 16.4388 104.149 16.3879 104.154C7.15604 105.212 3.94595 105.911 3.15915 109.592C3.00839 110.301 3.05531 110.954 3.23803 111.545C3.99987 114.036 7.12408 115.487 7.85496 115.685C8.31526 115.81 15.656 117.285 22.7532 118.704C23.2174 118.795 23.6797 118.888 24.139 118.98C24.3687 119.025 24.5983 119.07 24.825 119.116C25.2324 119.197 25.6337 119.277 26.0301 119.355L26.0331 119.357C26.3067 119.411 26.5753 119.465 26.8439 119.518C27.2822 119.606 27.7156 119.693 28.1389 119.777C28.2817 119.804 28.4225 119.831 28.5643 119.861C28.6112 119.872 28.6601 119.879 28.708 119.89C29.0815 119.964 29.4439 120.036 29.7984 120.105C30.4643 120.239 31.0974 120.363 31.6875 120.482C31.8123 120.506 31.9371 120.53 32.0579 120.554C32.5591 120.654 33.0234 120.748 33.4508 120.831C33.5606 120.854 33.6654 120.875 33.7693 120.894C33.8322 120.908 33.8951 120.92 33.957 120.932C34.0169 120.944 34.0748 120.955 34.1317 120.968C34.1417 120.968 34.1497 120.971 34.1607 120.973C34.6929 121.078 35.1362 121.167 35.4757 121.235C35.5196 121.244 35.5615 121.251 35.6035 121.261C35.6943 121.278 35.7782 121.295 35.8491 121.31C35.903 121.319 35.9529 121.33 35.9949 121.34C36.0388 121.349 36.0758 121.355 36.1067 121.362C36.1147 121.365 36.1247 121.365 36.1327 121.368C36.1636 121.373 36.1846 121.378 36.2006 121.381C36.2165 121.385 36.2235 121.385 36.2235 121.385L35.9959 123.514C35.9959 123.514 35.7093 123.49 35.1881 123.45C34.1297 123.374 32.1028 123.233 29.5358 123.109C28.9177 123.078 28.2677 123.047 27.5907 123.021C26.6212 122.982 25.6018 122.946 24.5454 122.919C14.6785 122.656 1.79724 123.019 0.384403 126.578C0.222651 126.988 0.11182 127.387 0.0539091 127.767C-0.737879 132.79 6.90941 135.093 8.36818 135.343C9.44153 135.528 22.7641 137.25 31.1084 138.323C31.8342 138.417 32.5232 138.506 33.1642 138.589C33.29 138.605 33.4128 138.622 33.5336 138.637C33.6185 138.648 33.7034 138.66 33.7873 138.669C33.929 138.689 34.0668 138.707 34.2006 138.723C34.2286 138.726 34.2575 138.731 34.2855 138.734C34.3155 138.736 34.3444 138.742 34.3744 138.744C34.4443 138.754 34.5131 138.764 34.582 138.772C34.606 138.776 34.631 138.777 34.6529 138.779C34.8377 138.803 35.0134 138.824 35.1831 138.847C35.268 138.858 35.3499 138.868 35.4317 138.88C35.7083 138.916 35.9639 138.947 36.1976 138.977C36.2874 138.99 36.3753 139.003 36.4592 139.012C36.5021 139.016 36.543 139.021 36.582 139.029C36.7357 139.048 36.8765 139.066 37.0023 139.082C37.4556 139.139 37.7272 139.174 37.7762 139.182C37.7811 139.183 37.7841 139.182 37.7841 139.182L42.0237 139.5L42.9063 139.565L42.7166 140.318C42.7166 140.318 42.5908 140.302 42.3531 140.271C41.3417 140.146 38.3183 139.779 34.5761 139.417H34.5741C34.2915 139.389 34.0019 139.362 33.7124 139.334C32.9785 139.267 32.2227 139.2 31.4548 139.134C25.8694 138.663 19.568 138.325 15.9805 138.783C10.0276 139.542 8.91734 142.277 8.71065 143.353C8.65973 143.629 8.66572 143.796 8.66572 143.796C8.66572 143.796 8.90036 148.055 17.0659 149.928C25.2324 151.801 34.8307 153.384 34.8307 153.384C34.8307 153.384 35.3529 153.852 34.6689 153.815C33.988 153.782 23.9264 152.738 20.5246 154.191C17.6999 155.397 17.7079 156.652 17.8267 157.194C17.8517 157.305 17.8816 157.387 17.8926 157.431C17.9585 157.699 19.2994 161.039 21.7058 162.046C23.4201 162.762 32.5232 166.324 41.0461 167.83C41.9937 168 42.9343 168.14 43.8568 168.25C44.9202 168.377 45.9606 168.461 46.9611 168.492C48.2521 168.533 49.4782 168.484 50.5955 168.325L59.6926 169.505L69.9848 170.841L72.6308 171.184L79.3725 172.059L93.5657 173.899C93.5657 173.899 93.5767 173.904 93.5997 173.915C93.6107 173.92 93.6246 173.926 93.6436 173.934C93.6985 173.958 93.7854 173.996 93.9022 174.049C93.9472 174.068 93.9971 174.09 94.049 174.112C94.1548 174.158 94.2746 174.213 94.4134 174.271C94.5522 174.331 94.705 174.398 94.8727 174.471C95.1253 174.58 95.4109 174.702 95.7274 174.84C95.8333 174.886 95.9411 174.931 96.0539 174.978C96.2237 175.051 96.4004 175.126 96.5831 175.203C96.621 175.216 96.66 175.234 96.6989 175.251C96.7209 175.26 96.7459 175.272 96.7688 175.281C96.9146 175.339 97.0644 175.402 97.2191 175.468C97.297 175.501 97.3749 175.534 97.4548 175.566C97.6155 175.634 97.7783 175.701 97.944 175.769C98.0658 175.821 98.1907 175.872 98.3195 175.925H98.3214C99.1422 176.263 100.052 176.634 101.031 177.023C104.482 178.398 108.817 180.035 113.361 181.529C113.401 181.541 113.442 181.554 113.483 181.569C114.536 181.913 115.599 182.252 116.664 182.576C122.797 184.445 129.002 185.882 133.671 185.929C145.399 186.04 154.645 187.682 167.217 199.3C167.618 199.672 168.023 200.054 168.432 200.448L176.318 176.329L177.725 172.026L177.73 172.024Z" fill="#1C85E8"/>
<path d="M210.708 237.585C209.763 236.595 208.782 235.595 207.775 234.588C191.579 218.381 168.435 200.448 168.435 200.448L176.321 176.328L176.369 176.18L177.728 172.025V172.023L181.252 161.249L182.131 158.562L210.708 237.585Z" fill="#1C85E8"/>
<path d="M117.145 170.124L101.034 177.022C96.5531 175.238 93.5677 173.899 93.5677 173.899L50.5995 168.326C48.6155 168.609 46.3011 168.543 43.8608 168.252L31.4558 139.133C37.5075 139.645 42.7185 140.316 42.7185 140.316L42.9093 139.563L37.7881 139.181C37.7881 139.181 34.9864 138.823 31.1103 138.323L24.5484 122.918C30.8976 123.088 35.9988 123.515 35.9988 123.515L36.2265 121.386C36.2265 121.386 29.6036 120.07 22.7531 118.705L16.5476 104.137C24.3766 103.38 71.9498 107.917 91.4659 109.846L117.144 170.124H117.145Z" fill="#002245"/>
<path d="M28.1409 119.779C26.4475 119.441 24.6093 119.075 22.7542 118.706C15.656 117.287 8.31726 115.813 7.85597 115.688C7.12509 115.489 4.00187 114.039 3.23804 111.548C5.67431 113.566 11.8169 116.19 27.2223 117.499L28.1399 119.778L28.1409 119.779Z" fill="#002245"/>
<path d="M34.585 138.773C33.5905 138.644 32.4113 138.493 31.1103 138.324C22.7671 137.249 9.44345 135.528 8.37209 135.343C6.91233 135.092 -0.733966 132.79 0.0578222 127.768C0.65391 129.509 2.54402 133.038 8.21933 133.883C15.8277 135.015 34.0448 137.259 34.0448 137.259L34.585 138.773Z" fill="#002245"/>
<path d="M41.4655 152.648L42.1864 155.578C42.1754 155.534 26.3587 154.737 22.5505 155.255C19.3534 155.69 18.4438 156.024 17.8297 157.195C17.7099 156.654 17.7029 155.399 20.5276 154.191C23.9284 152.737 33.99 153.781 34.6709 153.816C35.3549 153.852 34.8317 153.384 34.8317 153.384C34.8317 153.384 25.2334 151.803 17.0669 149.928C8.90038 148.056 8.66574 143.795 8.66574 143.795C8.66574 143.795 8.65975 143.627 8.71068 143.353C9.46252 144.826 11.4215 147.174 16.4628 148.423C24.168 150.332 41.4635 152.647 41.4635 152.647L41.4655 152.648Z" fill="#002245"/>
<path d="M123.005 179.533C121.219 180.429 118.751 181.601 116.666 182.576C110.958 180.838 105.316 178.728 101.033 177.023C99.3877 176.367 97.9399 175.772 96.7707 175.281L57.1364 112.604L56.3716 106.563C69.6652 107.722 83.1276 109.024 91.4659 109.846C92.666 109.965 93.7603 110.074 94.7329 110.171C97.4487 112.323 99.2639 114.355 99.6004 115.5C100.461 118.432 123.223 170.245 123.223 170.245C123.223 170.245 126.713 177.672 123.004 179.532L123.005 179.533Z" fill="#002245"/>
<path d="M75.4785 65.2736L121.259 172.739C122.354 175.308 121.288 178.225 118.88 179.257L66.2966 201.774C63.8883 202.805 61.0496 201.56 59.9553 198.991L14.1754 91.5242C13.0821 88.9575 14.1464 86.0384 16.5547 85.0063L69.1382 62.4897C71.5466 61.4586 74.3862 62.7059 75.4795 65.2726L75.4785 65.2736Z" fill="url(#paint4_linear_377_3123)"/>
<path d="M52.2949 78.6947L39.8749 84.0133C38.8904 84.4347 37.7412 83.9722 37.3208 82.9852C36.9005 81.9982 37.3618 80.8459 38.3463 80.4245L50.7663 75.1059C51.7508 74.6845 52.9 75.147 53.3204 76.134C53.7407 77.121 53.2794 78.2732 52.2949 78.6947Z" fill="white"/>
<path d="M77.9587 71.0867L16.6562 97.3401L57.5721 193.374L118.875 167.121L77.9587 71.0867Z" fill="white"/>
<path d="M44.6856 94.0799L27.45 101.461C26.5584 101.843 25.516 101.424 25.1356 100.529C24.7542 99.6347 25.1725 98.5896 26.0652 98.2082L43.3008 90.8274C44.1924 90.445 45.2348 90.8645 45.6152 91.7594C45.9966 92.6534 45.5783 93.6985 44.6856 94.0799Z" fill="#1C85E8"/>
<path d="M53.4192 201.807C51.0708 201.807 48.8891 200.121 48.2441 197.613L19.1197 84.4617C18.7542 83.0413 18.93 81.5697 19.6149 80.3174C20.3049 79.0561 21.4281 78.1691 22.7781 77.8198L78.1433 63.4957C79.4932 63.1463 80.9041 63.3776 82.1162 64.1464C83.3194 64.9092 84.1841 66.1125 84.5495 67.533L113.674 180.684C114.432 183.628 112.79 186.607 110.016 187.325L54.6503 201.649C54.2399 201.755 53.8265 201.806 53.4192 201.806V201.807ZM79.3814 64.2525C79.0439 64.2525 78.7045 64.2956 78.371 64.3816L23.0057 78.7057C21.9024 78.991 20.9828 79.7198 20.4147 80.7568C19.8416 81.8039 19.6958 83.0382 20.0033 84.2325L49.1277 197.383C49.7598 199.839 52.1351 201.356 54.4236 200.764L109.789 186.44C112.076 185.848 113.423 183.369 112.791 180.913L83.6679 67.7622C83.3603 66.5679 82.6364 65.5589 81.63 64.9202C80.934 64.4787 80.1612 64.2525 79.3834 64.2525H79.3814Z" fill="#002245"/>
<path d="M94.686 133.704L49.627 152.947C47.5432 153.837 45.1339 152.865 44.2452 150.774L27.0845 110.383C26.1968 108.294 27.1664 105.877 29.2512 104.987L74.3102 85.7451C76.394 84.8552 78.8033 85.8272 79.6919 87.9174L96.8527 128.309C97.7403 130.398 96.7708 132.814 94.686 133.704Z" fill="#EBF5FE"/>
<path d="M80.0883 125.424L53.7846 136.657C52.5814 137.17 51.1905 136.609 50.6783 135.402L40.8833 112.347C40.3711 111.141 40.9302 109.746 42.1344 109.233L68.4381 98C69.6413 97.4864 71.0322 98.047 71.5444 99.2543L81.3394 122.31C81.8516 123.516 81.2914 124.91 80.0883 125.424Z" fill="#1C85E8"/>
<path d="M43.6291 129.483C43.4843 129.545 43.3166 129.551 43.1598 129.488L38.1225 127.455C37.808 127.328 37.6562 126.97 37.783 126.655L39.8109 121.605C39.9377 121.289 40.2942 121.137 40.6087 121.264C40.9232 121.392 41.075 121.749 40.9482 122.064L39.149 126.544L43.6171 128.348C43.9316 128.475 44.0834 128.832 43.9566 129.148C43.8937 129.305 43.7729 129.422 43.6281 129.484L43.6291 129.483Z" fill="white"/>
<path d="M81.9656 113.112C82.1103 113.05 82.2312 112.934 82.2941 112.776L84.322 107.725C84.4488 107.41 84.296 107.052 83.9825 106.925L78.9452 104.892C78.6307 104.765 78.2742 104.918 78.1474 105.233C78.0206 105.548 78.1734 105.905 78.4869 106.032L82.9551 107.836L81.1558 112.316C81.029 112.631 81.1818 112.989 81.4953 113.116C81.6521 113.179 81.8198 113.173 81.9646 113.111L81.9656 113.112Z" fill="white"/>
<path d="M58.9905 139.559L49.9993 143.398C49.3823 143.661 48.6693 143.374 48.4058 142.755C48.1432 142.136 48.4297 141.422 49.0468 141.157L58.038 137.318C58.6551 137.055 59.368 137.342 59.6316 137.961C59.8942 138.58 59.6076 139.294 58.9905 139.559Z" fill="white"/>
<path d="M82.0614 134.833L55.8335 146.033C55.2165 146.297 54.5036 146.009 54.24 145.391C53.9774 144.772 54.2639 144.057 54.881 143.793L81.1088 132.592C81.7259 132.329 82.4388 132.616 82.7024 133.235C82.965 133.854 82.6784 134.568 82.0614 134.833Z" fill="white"/>
<path d="M69.2609 111.166L63.5576 107.658L60.9266 107.982L60.3615 108.053C60.3615 108.053 59.8802 109.201 57.9991 110.005C56.118 110.808 54.9588 110.361 54.9578 110.361L52.4606 112.399L50.897 119.583L55.1984 120.717L55.3621 120.085L56.1489 117.053L60.1967 126.64H60.1957L60.4384 127.212L64.563 125.449L68.6877 123.686L64.3504 113.547L67.0772 115.079L67.6453 115.397L69.809 111.501L69.2609 111.164V111.166Z" fill="white"/>
<path d="M76.4239 171.457L61.1023 178C59.2781 178.779 57.1693 177.928 56.3925 176.099L50.5045 162.24C49.7277 160.412 50.5764 158.297 52.4006 157.518L67.7222 150.976C69.5464 150.197 71.6552 151.048 72.432 152.877L78.32 166.735C79.0968 168.564 78.2481 170.678 76.4239 171.457Z" fill="#EBF5FE"/>
<path d="M104.754 159.358L89.4322 165.901C87.6079 166.68 85.4992 165.829 84.7224 164L78.8344 150.142C78.0576 148.313 78.9063 146.199 80.7305 145.42L96.052 138.877C97.8762 138.098 99.985 138.949 100.762 140.778L106.65 154.636C107.427 156.465 106.578 158.58 104.754 159.358Z" fill="#EBF5FE"/>
<path d="M72.0426 168.222L61.5686 172.688C61.1053 172.886 60.5741 172.633 60.4343 172.149L57.3061 161.336C57.1883 160.926 57.393 160.494 57.7834 160.326L65.7861 156.914C66.1765 156.747 66.6308 156.9 66.8425 157.268L72.4429 167.027C72.6936 167.465 72.5068 168.024 72.0436 168.222H72.0426Z" fill="#1C85E8"/>
<path d="M64.8934 159.447C65.0262 160.586 64.4062 161.726 63.3019 162.197C62.1966 162.669 60.9485 162.325 60.2206 161.44L59.0903 161.921C60.1008 163.41 62.0538 164.029 63.7682 163.299C65.4825 162.568 66.3922 160.727 66.0227 158.965L64.8924 159.447H64.8934Z" fill="white"/>
<path d="M97.4247 148.007L95.6634 148.755C95.6554 148.731 95.6584 148.705 95.6484 148.681L95.0433 147.251C94.8546 146.804 94.3404 146.596 93.8951 146.785L87.9232 149.325C87.4779 149.514 87.2702 150.03 87.4589 150.476L88.064 151.907C88.074 151.931 88.094 151.947 88.1069 151.969L86.3457 152.717C85.5738 153.046 85.2134 153.939 85.5409 154.713L87.0446 158.266C87.3721 159.04 88.2627 159.401 89.0345 159.073L100.113 154.362C100.884 154.034 101.245 153.141 100.917 152.367L99.4136 148.813C99.0861 148.04 98.1955 147.678 97.4237 148.007H97.4247Z" fill="white"/>
<path d="M95.5936 151.174C96.2615 152.752 95.5267 154.575 93.9511 155.245C92.3765 155.915 90.5583 155.178 89.8903 153.599C89.2223 152.021 89.9572 150.198 91.5328 149.528C93.1074 148.858 94.9256 149.595 95.5936 151.175V151.174Z" fill="#1C85E8"/>
<path d="M79.8285 179.249C80.4458 177.712 79.7033 175.965 78.1702 175.346C76.6372 174.727 74.894 175.471 74.2768 177.008C73.6595 178.545 74.402 180.293 75.9351 180.912C77.4681 181.531 79.2113 180.786 79.8285 179.249Z" fill="#EBF5FE"/>
<path d="M85.8396 177.517C87.4766 177.289 88.6198 175.774 88.3929 174.133C88.166 172.492 86.6551 171.346 85.018 171.573C83.381 171.8 82.2379 173.315 82.4647 174.957C82.6916 176.598 84.2026 177.744 85.8396 177.517Z" fill="#1C85E8"/>
<path d="M96.7586 171.404C96.9898 169.763 95.8506 168.245 94.2141 168.014C92.5777 167.782 91.0637 168.924 90.8326 170.565C90.6014 172.205 91.7406 173.723 93.3771 173.955C95.0135 174.187 96.5275 173.045 96.7586 171.404Z" fill="#EBF5FE"/>
<path d="M182.131 158.562L181.253 161.249L177.728 172.023V172.025L176.369 176.18L176.321 176.328L174.923 175.738L146.861 163.918C146.861 163.918 111.15 131.213 101.054 119.153H101.052C101 119.09 100.95 119.029 100.901 118.968C100.749 118.785 100.601 118.606 100.461 118.433C100.317 118.254 100.172 118.078 100.022 117.904C99.944 117.81 99.8612 117.717 99.7783 117.623C99.6934 117.524 99.6065 117.426 99.5197 117.328C99.315 117.102 99.1063 116.877 98.8916 116.657C98.7828 116.541 98.67 116.425 98.5572 116.31C98.4074 116.158 98.2526 116.007 98.0989 115.859C97.977 115.739 97.8532 115.623 97.7274 115.507C97.6835 115.463 97.6406 115.422 97.5946 115.383C97.4968 115.292 97.3969 115.2 97.2971 115.113C97.1882 115.013 97.0754 114.915 96.9646 114.817C96.9406 114.793 96.9147 114.771 96.8887 114.752C96.721 114.603 96.5512 114.459 96.3825 114.318C96.3805 114.314 96.3765 114.311 96.3715 114.309C96.3715 114.309 96.3715 114.307 96.3695 114.309H96.3675C96.3156 114.263 96.2627 114.22 96.2107 114.176C96.1588 114.13 96.1039 114.087 96.05 114.043C95.5607 113.641 95.0585 113.256 94.5493 112.881C94.4425 112.805 94.3366 112.725 94.2298 112.649C93.9991 112.484 93.7685 112.322 93.5338 112.161C93.425 112.085 93.3142 112.011 93.2034 111.937C93.1075 111.874 93.0146 111.808 92.9188 111.747C92.797 111.666 92.6752 111.586 92.5513 111.507C92.3796 111.396 92.2079 111.287 92.0361 111.18V111.178C92.0361 111.178 92.0361 111.176 92.0341 111.178C91.8295 111.05 91.6228 110.923 91.4171 110.796C91.3841 110.776 91.3542 110.757 91.3212 110.737C91.1235 110.619 90.9228 110.502 90.7251 110.386C90.5055 110.258 90.2858 110.131 90.0642 110.009C89.8445 109.884 89.6248 109.762 89.4052 109.642H89.4032L89.4012 109.64C89.1945 109.529 88.9898 109.42 88.7841 109.313V109.311C88.7122 109.272 88.6383 109.235 88.5644 109.198C88.3648 109.093 88.1661 108.991 87.9684 108.892C87.8745 108.844 87.7817 108.796 87.6858 108.75C87.527 108.672 87.3703 108.593 87.2135 108.519C86.4507 108.147 85.6899 107.799 84.939 107.473C84.7213 107.379 84.5037 107.286 84.289 107.196L84.287 107.194C84.0194 107.081 83.7538 106.971 83.4892 106.864C83.2216 106.755 82.956 106.651 82.6954 106.548C82.5936 106.509 82.4888 106.467 82.3869 106.428C82.296 106.393 82.2062 106.358 82.1153 106.323C81.9586 106.264 81.8048 106.205 81.65 106.149C81.6261 106.14 81.6021 106.132 81.5781 106.122C81.4893 106.087 81.4024 106.054 81.3126 106.024C81.2147 105.989 81.1169 105.952 81.021 105.917C80.7684 105.826 80.5188 105.738 80.2731 105.654C80.1863 105.623 80.1014 105.593 80.0185 105.567C79.9337 105.537 79.8508 105.508 79.7659 105.48C79.6012 105.423 79.4354 105.367 79.2727 105.314C79.1928 105.288 79.1099 105.26 79.029 105.233C78.9002 105.192 78.7744 105.149 78.6506 105.11C78.6177 105.099 78.5857 105.088 78.5528 105.08C78.4699 105.052 78.39 105.026 78.3091 105.002C78.2373 104.978 78.1674 104.956 78.0965 104.935C77.7879 104.839 77.4874 104.748 77.1988 104.663C76.9812 104.598 76.7725 104.537 76.5688 104.478C76.3651 104.419 76.1644 104.363 75.9727 104.31C75.9078 104.293 75.8449 104.275 75.781 104.258C75.7311 104.243 75.6792 104.23 75.6293 104.216C75.5554 104.194 75.4835 104.175 75.4116 104.157C74.8415 104.005 74.3372 103.876 73.9089 103.774C73.855 103.761 73.8021 103.748 73.7521 103.737C73.6343 103.709 73.5235 103.683 73.4196 103.659C73.3867 103.65 73.3567 103.644 73.3258 103.637C73.0762 103.578 72.8695 103.535 72.7087 103.5C72.6848 103.493 72.6608 103.489 72.6388 103.485C72.4711 103.45 72.3623 103.428 72.3233 103.422C72.3123 103.42 72.3063 103.418 72.3063 103.418C72.2015 103.401 72.0977 103.381 71.9928 103.359C71.9319 103.346 71.871 103.333 71.8081 103.32C71.7971 103.318 71.7861 103.316 71.7732 103.313C71.6553 103.287 71.5365 103.26 71.4187 103.229C71.2689 103.192 71.1182 103.153 70.9684 103.111H70.9644C70.8186 103.07 70.6728 103.026 70.5251 102.98C70.3703 102.934 70.2165 102.884 70.0618 102.83C69.91 102.78 69.7572 102.725 69.6055 102.669C69.6015 102.667 69.5965 102.667 69.5925 102.665C69.4447 102.608 69.295 102.552 69.1442 102.491C69.0164 102.441 68.8876 102.389 68.7598 102.334C68.7318 102.323 68.7059 102.309 68.6769 102.298C68.5251 102.23 68.3724 102.163 68.2206 102.095C68.2146 102.093 68.2076 102.088 68.2006 102.086C68.0529 102.016 67.9051 101.947 67.7573 101.875C67.6005 101.801 67.4468 101.723 67.292 101.644C67.1353 101.566 66.9815 101.483 66.8267 101.4C66.67 101.316 66.5162 101.231 66.3614 101.142C66.2266 101.066 66.0919 100.99 65.9591 100.911C65.9331 100.898 65.9071 100.883 65.8832 100.865C65.7314 100.776 65.5806 100.686 65.4309 100.593C65.4199 100.586 65.4089 100.58 65.3979 100.573C65.2541 100.484 65.1114 100.391 64.9676 100.3C64.718 100.139 64.4653 99.973 64.2177 99.8009C64.1588 99.7618 64.1029 99.7228 64.046 99.6827C64.033 99.6757 64.02 99.6657 64.007 99.6567C63.8653 99.5586 63.7265 99.4585 63.5877 99.3584C63.4359 99.2493 63.2832 99.1382 63.1334 99.025C63.0186 98.94 62.9047 98.8529 62.7899 98.7658C62.699 98.6977 62.6072 98.6286 62.5183 98.5566C62.4225 98.4805 62.3266 98.4064 62.2318 98.3303C61.7835 97.9729 61.3401 97.5995 60.9058 97.2181C60.762 97.09 60.6162 96.9609 60.4735 96.8297C60.3297 96.7016 60.1889 96.5685 60.0471 96.4373C59.48 95.9058 58.9278 95.3562 58.3946 94.7916C58.2618 94.6494 58.129 94.5083 57.9992 94.3641C57.8904 94.246 57.7836 94.1289 57.6777 94.0088C57.4251 93.7315 57.1825 93.4482 56.9449 93.1629C56.882 93.0888 56.8191 93.0147 56.7561 92.9386C56.7432 92.9216 56.7282 92.9036 56.7152 92.8846C56.5435 92.6774 56.3757 92.4702 56.213 92.2609C56.18 92.2219 56.1501 92.1829 56.1191 92.1408C56.0343 92.0317 55.9494 91.9226 55.8665 91.8115C55.7727 91.6893 55.6818 91.5652 55.5899 91.4411C55.5879 91.4411 55.5879 91.4391 55.5859 91.4391V91.4371C55.4711 91.2799 55.3533 91.1227 55.2425 90.9636C52.92 87.6891 53.0768 84.5659 53.7248 82.3725C53.8027 82.1023 53.8895 81.847 53.9794 81.6097C53.9994 81.5577 54.0203 81.5026 54.0423 81.4526C54.0553 81.4115 54.0703 81.3745 54.0852 81.3345C54.0892 81.3254 54.0942 81.3174 54.0962 81.3084V81.3064H54.1002C54.1062 81.2844 54.1152 81.2624 54.1242 81.2414C54.5915 80.1212 55.1007 79.4124 55.1786 79.3053L55.1875 79.2963V79.2943C55.6179 79.6036 56.0502 79.8979 56.4876 80.1752C56.5205 80.1993 56.5555 80.2193 56.5874 80.2403C56.6443 80.2753 56.7002 80.3104 56.7571 80.3454C56.8141 80.3805 56.87 80.4155 56.9269 80.4505C57.2204 80.6297 57.514 80.8039 57.8095 80.9691C57.9443 81.0472 58.0791 81.1212 58.2139 81.1933C58.2399 81.2083 58.2658 81.2213 58.2948 81.2394C58.4296 81.3114 58.5644 81.3835 58.7012 81.4526C58.8489 81.5307 58.9987 81.6077 59.1485 81.6818C59.2963 81.7579 59.446 81.83 59.5968 81.9021C60.0082 82.1003 60.4205 82.2875 60.8339 82.4646C61.0775 82.5698 61.3212 82.6699 61.5648 82.768C61.8713 82.8901 62.1778 83.0082 62.4864 83.1213C62.723 83.2084 62.9626 83.2935 63.1993 83.3746C63.4629 83.4637 63.7235 83.5508 63.9841 83.6339C64.2447 83.715 64.5063 83.795 64.7649 83.8711C64.8957 83.9082 65.0235 83.9452 65.1543 83.9822C65.2821 84.0173 65.4129 84.0543 65.5417 84.0894C65.6695 84.1244 65.7983 84.1574 65.9261 84.1915C66.8217 84.4227 67.7044 84.6189 68.5611 84.7841C68.8067 84.8301 69.0483 84.8752 69.29 84.9172H69.292C71.3208 85.2726 73.199 85.4618 74.7955 85.5759C75.822 85.65 76.7306 85.691 77.4914 85.7281C78.1244 85.7611 78.6546 85.7871 79.066 85.8242C80.1733 85.9203 82.2321 86.631 85.0668 87.7732V87.7752H85.0688V87.7772C86.4667 88.3378 88.0502 89.0065 89.8026 89.7613C95.2951 92.1218 102.42 95.3091 110.511 98.6747C126.422 105.289 134.485 117.426 159.289 138.044C165.419 143.138 171.508 147.048 177.204 150.043C177.967 150.446 178.723 150.829 179.471 151.198L182.135 158.56L182.131 158.562Z" fill="#1C85E8"/>
<path d="M69.2869 84.9202C62.8368 89.5101 56.2618 84.678 53.7197 82.3746C54.2729 80.4896 55.1855 79.2953 55.1855 79.2953C59.7535 82.5908 64.8816 84.1484 69.2869 84.9202Z" fill="#FF8685"/>
<path d="M101.055 119.153C100.848 118.903 100.649 118.664 100.463 118.433C91.2634 107.017 72.3044 103.418 72.3044 103.418C66.662 102.429 59.9204 97.3343 55.583 91.4411C59.0507 93.9107 69.1652 100.677 77.6971 102.093C88.1801 103.833 98.7419 112.568 99.6026 115.502C99.7194 115.901 100.241 117.202 101.055 119.154V119.153Z" fill="#002245"/>
<path d="M30.1531 183.424C30.6227 180.571 28.6962 177.876 25.8501 177.405C23.004 176.934 20.3161 178.866 19.8464 181.719C19.3768 184.573 21.3033 187.268 24.1494 187.738C26.9955 188.209 29.6834 186.278 30.1531 183.424Z" fill="white"/>
<path d="M224.079 274.552L222.443 275.147L216.123 257.669L210.595 242.385L207.776 234.587L204.362 225.148L197.763 206.904L181.253 161.249L177.201 150.045L160.265 103.214L154.02 85.9493L150.85 77.1841L146.031 63.8601L144.02 58.2993L140.856 49.5491L132.252 25.7611L133.888 25.1664L142.644 49.3769L145.81 58.1291L147.431 62.6158L152.328 76.157L155.498 84.9212L162.493 104.262L179.468 151.2L182.131 158.562L198.474 203.752L204.749 221.102L210.708 237.585L212.609 242.84L218.038 257.852L224.079 274.552Z" fill="#002245"/>
</g>
<defs>
<linearGradient id="paint0_linear_377_3123" x1="197.763" y1="212.615" x2="323.589" y2="212.615" gradientUnits="userSpaceOnUse">
<stop stop-color="#623CF4"/>
<stop offset="0.24" stop-color="#613EF4"/>
<stop offset="0.39" stop-color="#5D47F4"/>
<stop offset="0.51" stop-color="#5855F5"/>
<stop offset="0.62" stop-color="#506AF6"/>
<stop offset="0.72" stop-color="#4684F8"/>
<stop offset="0.82" stop-color="#3AA5F9"/>
<stop offset="0.91" stop-color="#2BCCFC"/>
<stop offset="0.99" stop-color="#1AF8FE"/>
<stop offset="1" stop-color="#18FFFF"/>
</linearGradient>
<linearGradient id="paint1_linear_377_3123" x1="200.164" y1="161.169" x2="336.902" y2="161.169" gradientUnits="userSpaceOnUse">
<stop stop-color="#623CF4"/>
<stop offset="0.24" stop-color="#613EF4"/>
<stop offset="0.39" stop-color="#5D47F4"/>
<stop offset="0.51" stop-color="#5855F5"/>
<stop offset="0.62" stop-color="#506AF6"/>
<stop offset="0.72" stop-color="#4684F8"/>
<stop offset="0.82" stop-color="#3AA5F9"/>
<stop offset="0.91" stop-color="#2BCCFC"/>
<stop offset="0.99" stop-color="#1AF8FE"/>
<stop offset="1" stop-color="#18FFFF"/>
</linearGradient>
<linearGradient id="paint2_linear_377_3123" x1="231.36" y1="128.479" x2="323.557" y2="128.479" gradientUnits="userSpaceOnUse">
<stop stop-color="#623CF4"/>
<stop offset="0.24" stop-color="#613EF4"/>
<stop offset="0.39" stop-color="#5D47F4"/>
<stop offset="0.51" stop-color="#5855F5"/>
<stop offset="0.62" stop-color="#506AF6"/>
<stop offset="0.72" stop-color="#4684F8"/>
<stop offset="0.82" stop-color="#3AA5F9"/>
<stop offset="0.91" stop-color="#2BCCFC"/>
<stop offset="0.99" stop-color="#1AF8FE"/>
<stop offset="1" stop-color="#18FFFF"/>
</linearGradient>
<linearGradient id="paint3_linear_377_3123" x1="322.648" y1="31.3595" x2="385.203" y2="31.3595" gradientUnits="userSpaceOnUse">
<stop stop-color="#623CF4"/>
<stop offset="0.24" stop-color="#613EF4"/>
<stop offset="0.39" stop-color="#5D47F4"/>
<stop offset="0.51" stop-color="#5855F5"/>
<stop offset="0.62" stop-color="#506AF6"/>
<stop offset="0.72" stop-color="#4684F8"/>
<stop offset="0.82" stop-color="#3AA5F9"/>
<stop offset="0.91" stop-color="#2BCCFC"/>
<stop offset="0.99" stop-color="#1AF8FE"/>
<stop offset="1" stop-color="#18FFFF"/>
</linearGradient>
<linearGradient id="paint4_linear_377_3123" x1="13.745" y1="132.133" x2="121.69" y2="132.133" gradientUnits="userSpaceOnUse">
<stop stop-color="#623CF4"/>
<stop offset="0.24" stop-color="#613EF4"/>
<stop offset="0.39" stop-color="#5D47F4"/>
<stop offset="0.51" stop-color="#5855F5"/>
<stop offset="0.62" stop-color="#506AF6"/>
<stop offset="0.72" stop-color="#4684F8"/>
<stop offset="0.82" stop-color="#3AA5F9"/>
<stop offset="0.91" stop-color="#2BCCFC"/>
<stop offset="0.99" stop-color="#1AF8FE"/>
<stop offset="1" stop-color="#18FFFF"/>
</linearGradient>
<clipPath id="clip0_377_3123">
<rect width="403" height="276" fill="white"/>
</clipPath>
</defs>
</svg>
